<svg width="359" height="361" viewBox="0 0 359 361" fill="none" xmlns="http://www.w3.org/2000/svg">
<path fill-rule="evenodd" clip-rule="evenodd" d="M196.912 9.25C194.41 13.787 186.363 27.85 179.03 40.5C171.697 53.15 163.8 66.875 161.482 71C159.164 75.125 155.857 80.882 154.134 83.794C152.41 86.706 151 89.518 151 90.044C151 90.645 185.157 91 243 91C293.6 91 335 90.767 335 90.482C335 88.925 323.995 72.589 318.559 66.076C290.744 32.754 253.032 10.252 212.885 3.023C206.706 1.91 201.607 1 201.555 1C201.502 1 199.413 4.713 196.912 9.25ZM18.658 100.183C6.51401 124.981 1.34901 145.75 0.30001 174C-0.35699 191.707 0.883012 205.344 4.57401 221C7.47901 233.324 12.881 249.018 14.422 249.607C15.015 249.834 38.283 249.903 66.129 249.76L116.758 249.5L113.045 243C111.003 239.425 103.095 225.7 95.473 212.5C87.85 199.3 79.964 185.575 77.947 182C75.93 178.425 68.289 165.15 60.968 152.5C53.646 139.85 46.017 126.575 44.014 123C39.825 115.523 24.877 89.656 24.472 89.183C24.322 89.009 21.706 93.959 18.658 100.183ZM267.073 206.245C265.206 209.685 262.919 213.625 261.992 215C261.064 216.375 258.95 219.975 257.293 223C253.981 229.047 235.046 262.079 223.186 282.5C219.033 289.65 213.757 298.875 211.462 303C209.166 307.125 205.379 313.617 203.046 317.428C200.713 321.238 198.511 325.063 198.152 325.928C197.793 326.792 195.523 330.875 193.107 335C181.88 354.165 179 359.183 179 359.576C179 361.263 205.497 358.878 218.507 356.021C245.744 350.039 276.702 334.365 297.5 316.027C303.887 310.395 316.734 296.898 319.89 292.503L322.787 288.469L317.235 278.984C307.69 262.678 301.584 252.101 290.981 233.5C285.338 223.6 280.019 214.375 279.162 213C278.306 211.625 276.41 208.272 274.949 205.549C273.489 202.826 271.883 200.461 271.381 200.294C270.879 200.126 268.94 202.804 267.073 206.245Z" fill="#24B361"/>
<path fill-rule="evenodd" clip-rule="evenodd" d="M160 1.06399C122.792 5.02099 86.019 21.768 58.117 47.464C48.809 56.036 37 69.529 37 71.592C37 72.213 38.017 74.246 39.259 76.11C40.502 77.975 42.079 80.625 42.763 82C43.447 83.375 45.354 86.75 46.999 89.5C48.645 92.25 50.287 95.175 50.648 96C51.009 96.825 51.851 98.175 52.519 99C53.188 99.825 55.637 104.1 57.962 108.5C60.287 112.9 64.34 120.1 66.968 124.5C71.785 132.565 82.051 150.261 85.203 155.934C87.941 160.86 87.933 160.867 96.752 145C101.24 136.925 111.452 119.173 114.01 115C115.527 112.525 117.879 108.475 119.238 106C120.597 103.525 127.849 90.812 135.354 77.749C142.859 64.686 149 53.586 149 53.082C149 52.579 149.356 52.017 149.791 51.833C150.226 51.65 152.077 48.8 153.905 45.5C158.07 37.981 166.892 22.773 172.65 13.189C175.066 9.16799 176.781 5.45499 176.462 4.93899C176.143 4.42199 176.343 3.99999 176.906 3.99999C177.469 3.99999 178.411 3.09999 179 1.99999C180.021 0.0929905 179.778 0.00599368 173.785 0.132994C170.328 0.205994 164.125 0.624993 160 1.06399ZM243.179 111.25C243.597 112.851 247.863 120.452 255.75 133.648C259.188 139.4 262 144.314 262 144.57C262 144.825 263.961 148.289 266.359 152.267C268.756 156.245 271.957 161.75 273.471 164.5C278.68 173.961 284.436 183.501 285.302 184.112C285.78 184.448 286.171 185.123 286.17 185.612C286.17 186.872 297.274 206.431 298.218 206.833C298.648 207.017 299 207.635 299 208.207C299 208.779 301.025 212.582 303.5 216.659C305.975 220.735 308 224.275 308 224.524C308 224.773 310.757 229.594 314.126 235.238C317.495 240.882 321.16 247.075 322.27 249C323.381 250.925 325.59 254.75 327.179 257.5C328.769 260.25 330.816 263.971 331.729 265.769C332.642 267.566 333.863 268.88 334.444 268.687C336.9 267.872 345.368 250.018 349.915 236.066C356.074 217.172 358.392 201.904 358.426 180C358.466 155.486 355.262 136.685 347.851 117.931L344.717 110H293.785C253.533 110 242.922 110.262 243.179 111.25ZM26.624 273.75C32.934 284.818 41.284 295.299 53.54 307.536C68.448 322.421 85.058 334.259 103.116 342.871C118.901 350.397 137.928 356.236 151.004 357.565L157.508 358.226L159.637 354.363C160.807 352.238 167.436 340.659 174.368 328.631C181.3 316.603 186.683 306.296 186.331 305.727C185.968 305.139 186.175 304.99 186.81 305.383C187.496 305.806 188.963 304.033 190.601 300.801C192.07 297.901 194.3 293.901 195.556 291.912C198.525 287.208 208 270.142 208 269.498C208 269.224 166.581 269 115.958 269H23.916L26.624 273.75Z" fill="#F35B05"/>
</svg>
