<svg id="svg" version="1.1" xmlns="http://www.w3.org/2000/svg" xmlns:xlink="http://www.w3.org/1999/xlink" width="400" height="280.7017543859649" viewBox="0, 0, 400,280.7017543859649"><g id="svgg"><path id="path0" d="M184.702 44.108 C 179.452 44.635,177.350 44.979,172.070 46.172 C 167.450 47.217,159.006 49.899,156.211 51.210 C 151.241 53.541,145.927 56.241,143.920 57.455 C 142.564 58.276,141.332 58.947,141.183 58.947 C 141.034 58.947,140.912 59.074,140.912 59.228 C 140.912 59.382,140.733 59.509,140.515 59.509 C 140.296 59.509,140.075 59.610,140.023 59.734 C 139.972 59.858,138.793 60.739,137.404 61.691 C 130.744 66.257,120.494 76.114,117.102 81.215 L 116.387 82.290 116.920 83.320 C 117.213 83.887,117.805 84.879,118.235 85.524 C 118.666 86.170,119.018 86.803,119.018 86.933 C 119.018 87.062,119.323 87.618,119.697 88.167 C 120.337 89.109,121.446 91.069,122.780 93.614 C 123.104 94.232,123.439 94.800,123.525 94.877 C 123.611 94.954,124.242 95.999,124.928 97.198 C 125.614 98.397,126.839 100.519,127.649 101.912 C 128.460 103.305,129.123 104.511,129.123 104.593 C 129.123 104.674,129.474 105.269,129.903 105.914 C 130.333 106.560,130.864 107.467,131.084 107.930 C 131.304 108.393,131.629 108.961,131.806 109.193 C 131.983 109.425,132.426 110.182,132.792 110.877 C 133.157 111.572,133.600 112.330,133.775 112.561 C 133.951 112.793,134.535 113.804,135.074 114.807 C 136.140 116.792,136.740 117.848,138.024 120.000 C 139.890 123.125,140.884 124.856,141.759 126.503 C 143.849 130.436,144.046 130.444,146.160 126.667 C 147.089 125.007,148.325 122.828,148.906 121.825 C 150.763 118.620,151.083 118.061,151.795 116.772 C 152.180 116.077,152.667 115.309,152.878 115.066 C 153.090 114.822,153.263 114.547,153.263 114.456 C 153.263 114.318,154.952 111.311,158.071 105.895 C 158.360 105.393,158.830 104.572,159.115 104.070 C 159.401 103.568,160.032 102.512,160.519 101.723 C 161.005 100.934,161.404 100.213,161.404 100.120 C 161.404 100.028,162.225 98.611,163.228 96.972 C 164.232 95.333,165.053 93.941,165.053 93.878 C 165.053 93.815,165.558 92.939,166.175 91.930 C 166.793 90.921,167.298 90.022,167.298 89.933 C 167.298 89.844,167.531 89.436,167.816 89.026 C 168.101 88.616,168.779 87.460,169.323 86.456 C 170.539 84.212,175.322 75.806,175.712 75.228 C 175.867 74.996,176.328 74.175,176.735 73.404 C 177.142 72.632,177.717 71.658,178.011 71.241 C 178.521 70.518,179.304 69.147,180.910 66.166 C 181.307 65.428,182.071 64.139,182.606 63.302 C 183.141 62.466,183.579 61.706,183.579 61.614 C 183.579 61.522,184.193 60.410,184.944 59.144 C 186.289 56.875,191.033 48.725,192.043 46.947 C 194.013 43.482,194.188 43.778,190.199 43.829 C 188.488 43.850,186.014 43.976,184.702 44.108 M228.282 103.282 L 227.652 103.439 228.344 104.804 C 228.725 105.555,229.153 106.312,229.294 106.488 C 229.436 106.663,229.985 107.628,230.515 108.632 C 231.044 109.635,232.146 111.593,232.963 112.982 C 233.779 114.372,234.700 115.951,235.008 116.491 C 235.316 117.032,235.663 117.600,235.779 117.754 C 235.895 117.909,236.367 118.730,236.829 119.579 C 237.291 120.428,238.655 122.828,239.860 124.912 C 241.864 128.378,242.538 129.558,244.910 133.754 C 245.346 134.526,245.979 135.600,246.316 136.140 C 246.653 136.681,247.246 137.691,247.635 138.386 C 248.024 139.081,248.612 140.123,248.943 140.702 C 249.273 141.281,249.790 142.188,250.090 142.719 C 250.391 143.249,250.939 144.165,251.309 144.754 C 251.679 145.343,252.401 146.582,252.914 147.509 C 253.427 148.435,254.097 149.635,254.403 150.175 C 254.709 150.716,255.340 151.853,255.803 152.702 C 256.267 153.551,256.880 154.581,257.166 154.991 C 257.451 155.400,257.684 155.820,257.684 155.923 C 257.684 156.025,258.040 156.637,258.476 157.283 C 258.911 157.928,259.715 159.277,260.261 160.281 C 260.808 161.284,261.525 162.579,261.855 163.158 C 262.186 163.737,262.711 164.661,263.023 165.211 C 263.334 165.761,263.808 166.545,264.075 166.953 C 264.343 167.361,264.814 168.164,265.123 168.739 C 265.432 169.313,266.379 170.998,267.228 172.482 C 268.077 173.967,268.962 175.523,269.195 175.942 C 269.427 176.360,270.261 177.775,271.047 179.088 C 271.834 180.400,273.401 183.142,274.531 185.181 C 276.788 189.256,277.063 189.522,277.849 188.408 C 279.295 186.360,282.870 178.808,283.941 175.541 C 284.187 174.790,284.564 173.789,284.778 173.317 C 285.947 170.742,288.226 161.763,289.085 156.351 C 291.434 141.540,290.347 125.870,285.999 111.860 C 285.231 109.385,284.930 108.572,283.606 105.404 L 282.786 103.439 281.112 103.233 C 279.194 102.997,229.238 103.043,228.282 103.282 M109.754 189.323 C 109.754 189.728,114.819 197.728,115.971 199.143 C 116.103 199.306,116.809 200.196,117.540 201.123 C 122.641 207.591,129.161 213.973,135.439 218.644 C 138.324 220.790,142.206 223.439,142.466 223.439 C 142.563 223.439,143.295 223.861,144.093 224.378 C 145.731 225.439,149.117 227.353,150.175 227.816 C 150.561 227.985,152.086 228.704,153.563 229.414 C 156.877 231.007,158.086 231.485,162.526 232.957 C 164.456 233.597,166.667 234.331,167.439 234.589 C 168.211 234.846,169.347 235.151,169.965 235.267 C 170.582 235.383,171.656 235.611,172.351 235.775 C 179.862 237.537,181.590 237.454,182.648 235.278 C 183.074 234.402,183.774 233.161,184.203 232.521 C 184.632 231.881,184.982 231.269,184.982 231.161 C 184.982 231.052,185.221 230.629,185.512 230.219 C 185.803 229.809,186.371 228.874,186.775 228.140 C 187.178 227.407,187.839 226.207,188.243 225.474 C 188.647 224.740,189.215 223.805,189.506 223.395 C 189.797 222.985,190.035 222.563,190.035 222.456 C 190.035 222.350,190.745 221.106,191.613 219.693 C 192.481 218.279,193.603 216.365,194.107 215.439 C 194.610 214.512,195.432 212.996,195.933 212.070 C 196.434 211.144,197.066 210.070,197.338 209.684 C 197.854 208.952,199.000 206.978,200.434 204.351 C 200.897 203.502,201.547 202.365,201.879 201.825 C 202.930 200.110,204.564 197.262,205.744 195.088 C 206.372 193.930,207.324 192.225,207.861 191.298 C 208.397 190.372,208.837 189.519,208.839 189.404 C 208.841 189.288,186.547 189.193,159.298 189.193 C 132.049 189.193,109.754 189.252,109.754 189.323 " stroke="none" fill="#f15d08" fill-rule="evenodd"></path><path id="path1" d="M205.449 45.134 C 205.212 45.411,204.636 46.327,204.169 47.170 C 202.382 50.395,200.859 52.916,200.645 53.006 C 200.522 53.057,200.421 53.331,200.421 53.614 C 200.421 53.897,200.322 54.171,200.202 54.222 C 199.939 54.334,197.333 58.915,197.333 59.265 C 197.333 59.399,197.229 59.509,197.101 59.509 C 196.973 59.509,196.562 60.164,196.188 60.965 C 195.815 61.765,195.190 62.870,194.801 63.421 C 194.411 63.971,193.780 65.021,193.398 65.754 C 193.015 66.488,192.608 67.088,192.492 67.088 C 192.376 67.088,192.281 67.273,192.281 67.499 C 192.281 67.725,191.902 68.508,191.439 69.238 C 190.975 69.969,190.596 70.661,190.596 70.778 C 190.596 70.894,190.237 71.533,189.797 72.196 C 189.358 72.860,188.758 73.846,188.464 74.386 C 188.170 74.926,187.859 75.432,187.774 75.509 C 187.688 75.586,187.451 76.060,187.248 76.561 C 187.045 77.063,186.768 77.474,186.633 77.474 C 186.497 77.474,186.386 77.663,186.386 77.895 C 186.386 78.126,186.260 78.316,186.105 78.316 C 185.951 78.316,185.825 78.492,185.825 78.708 C 185.825 78.924,185.337 79.903,184.742 80.884 C 184.146 81.864,183.321 83.298,182.908 84.070 C 181.733 86.267,180.417 88.548,180.235 88.702 C 179.905 88.982,178.246 92.132,178.246 92.478 C 178.246 92.562,200.414 92.632,227.509 92.632 C 265.150 92.632,276.772 92.554,276.772 92.301 C 276.772 91.728,276.108 90.105,275.873 90.105 C 275.750 90.105,275.649 89.916,275.649 89.684 C 275.649 89.453,275.548 89.263,275.424 89.263 C 275.300 89.263,274.845 88.609,274.413 87.809 C 273.981 87.010,273.135 85.689,272.533 84.874 C 271.931 84.059,271.439 83.323,271.439 83.238 C 271.439 83.153,271.139 82.737,270.774 82.313 C 270.408 81.890,269.052 80.281,267.760 78.737 C 263.280 73.381,257.714 68.032,252.351 63.926 C 251.193 63.039,250.072 62.169,249.860 61.991 C 249.021 61.287,243.685 57.863,241.954 56.918 C 240.945 56.366,239.458 55.525,238.650 55.049 C 237.842 54.573,236.867 54.104,236.483 54.008 C 236.099 53.911,235.720 53.728,235.641 53.601 C 235.509 53.387,234.090 52.675,231.523 51.536 C 230.137 50.921,226.228 49.486,224.140 48.827 C 223.214 48.534,222.204 48.180,221.895 48.039 C 221.586 47.898,220.765 47.634,220.070 47.452 C 219.375 47.269,218.419 47.002,217.945 46.858 C 217.471 46.714,216.752 46.596,216.348 46.596 C 215.943 46.596,215.534 46.470,215.439 46.316 C 215.343 46.161,214.959 46.035,214.584 46.035 C 214.209 46.035,213.364 45.915,212.706 45.768 C 212.047 45.621,210.688 45.375,209.684 45.221 C 208.681 45.067,207.414 44.870,206.870 44.785 C 206.130 44.669,205.772 44.757,205.449 45.134 M109.193 93.347 C 109.193 93.584,108.961 94.027,108.676 94.332 C 108.392 94.637,108.030 95.169,107.870 95.514 C 107.711 95.858,107.070 97.214,106.446 98.526 C 105.822 99.839,104.961 101.796,104.534 102.877 C 104.106 103.958,103.653 104.884,103.527 104.936 C 103.401 104.987,103.298 105.273,103.298 105.571 C 103.298 105.869,103.182 106.332,103.040 106.600 C 102.682 107.276,101.749 109.921,101.334 111.439 C 101.144 112.133,100.886 112.954,100.761 113.263 C 100.636 113.572,100.470 114.140,100.392 114.526 C 100.313 114.912,100.106 115.733,99.930 116.351 C 96.935 126.881,95.928 144.041,97.683 154.667 C 98.629 160.396,98.943 162.046,99.422 163.789 C 99.719 164.870,100.245 166.792,100.592 168.061 C 100.938 169.330,101.310 170.456,101.418 170.564 C 101.526 170.672,101.614 171.048,101.614 171.399 C 101.614 171.750,101.740 172.115,101.895 172.211 C 102.049 172.306,102.175 172.692,102.175 173.069 C 102.175 173.446,102.274 173.754,102.395 173.754 C 102.516 173.754,102.789 174.354,103.003 175.088 C 103.218 175.821,103.517 176.674,103.670 176.982 C 103.822 177.291,104.036 177.733,104.144 177.965 C 104.427 178.568,159.158 178.752,159.158 178.150 C 159.158 177.942,158.653 176.990,158.035 176.034 C 157.418 175.079,156.912 174.112,156.912 173.885 C 156.912 173.659,156.801 173.474,156.664 173.474 C 156.528 173.474,156.344 173.253,156.256 172.982 C 156.091 172.478,155.214 170.930,153.831 168.702 C 153.400 168.007,152.732 166.860,152.346 166.153 C 151.242 164.133,150.888 163.519,150.737 163.368 C 150.660 163.291,150.378 162.786,150.112 162.246 C 149.492 160.990,148.295 158.949,147.616 157.992 C 147.325 157.582,147.088 157.157,147.088 157.047 C 147.088 156.938,146.519 155.936,145.825 154.822 C 145.130 153.707,144.561 152.648,144.561 152.468 C 144.561 152.288,144.467 152.140,144.351 152.139 C 144.235 152.139,143.825 151.445,143.439 150.596 C 143.053 149.748,142.642 149.054,142.526 149.054 C 142.411 149.053,142.316 148.917,142.316 148.752 C 142.316 148.587,141.928 147.888,141.454 147.199 C 140.980 146.510,140.347 145.414,140.048 144.763 C 139.748 144.112,139.066 142.884,138.531 142.035 C 137.996 141.186,137.276 139.923,136.931 139.228 C 136.586 138.533,136.144 137.801,135.948 137.601 C 135.753 137.401,135.375 136.769,135.109 136.197 C 134.843 135.626,134.550 135.095,134.457 135.018 C 134.220 134.820,132.764 132.288,132.117 130.947 C 131.819 130.330,131.490 129.761,131.387 129.684 C 131.283 129.607,130.972 129.102,130.694 128.561 C 129.765 126.754,129.186 125.736,128.490 124.688 C 128.110 124.117,127.385 122.891,126.879 121.965 C 126.373 121.039,125.882 120.218,125.787 120.140 C 125.692 120.063,125.287 119.368,124.888 118.596 C 123.371 115.667,122.800 114.664,122.596 114.573 C 122.481 114.522,122.386 114.237,122.386 113.942 C 122.386 113.646,122.274 113.404,122.137 113.404 C 122.000 113.404,121.683 112.993,121.433 112.491 C 121.182 111.989,120.598 110.947,120.135 110.175 C 119.672 109.404,118.975 108.204,118.586 107.509 C 117.510 105.587,116.649 104.103,115.980 103.018 C 115.648 102.477,115.057 101.379,114.669 100.577 C 114.281 99.776,113.829 99.037,113.666 98.936 C 113.503 98.835,113.248 98.481,113.101 98.148 C 112.953 97.816,112.476 96.912,112.040 96.140 C 111.604 95.368,111.044 94.367,110.796 93.914 C 110.303 93.017,109.193 92.624,109.193 93.347 M242.526 152.538 C 242.526 152.757,242.421 152.978,242.293 153.029 C 241.951 153.167,240.000 156.821,240.000 157.324 C 240.000 157.561,239.892 157.754,239.759 157.754 C 239.478 157.754,237.642 160.644,236.638 162.667 C 236.255 163.439,235.718 164.315,235.445 164.614 C 235.171 164.914,234.947 165.333,234.947 165.546 C 234.947 165.759,234.568 166.485,234.105 167.158 C 233.642 167.831,233.263 168.449,233.263 168.532 C 233.263 168.614,232.505 169.944,231.579 171.486 C 230.653 173.028,229.895 174.381,229.895 174.491 C 229.895 174.602,229.724 174.892,229.515 175.136 C 229.307 175.380,228.833 176.147,228.463 176.842 C 228.092 177.537,227.726 178.168,227.649 178.246 C 227.572 178.323,227.242 178.891,226.915 179.509 C 226.589 180.126,225.863 181.433,225.301 182.413 C 224.740 183.393,224.281 184.308,224.281 184.448 C 224.281 184.588,224.186 184.702,224.070 184.702 C 223.954 184.702,223.548 185.302,223.169 186.035 C 222.789 186.768,221.576 188.884,220.473 190.737 C 219.369 192.589,218.031 194.926,217.498 195.930 C 216.965 196.933,216.189 198.289,215.773 198.942 C 215.358 199.595,215.018 200.204,215.018 200.295 C 215.018 200.386,214.639 201.011,214.175 201.684 C 213.712 202.357,213.333 202.970,213.333 203.046 C 213.333 203.122,212.685 204.299,211.893 205.662 C 211.101 207.025,210.175 208.646,209.835 209.263 C 209.495 209.881,208.955 210.842,208.635 211.400 C 208.315 211.958,207.883 212.716,207.676 213.084 C 207.468 213.453,207.235 213.818,207.158 213.895 C 207.081 213.972,206.590 214.856,206.068 215.860 C 205.546 216.863,204.782 218.189,204.372 218.807 C 203.961 219.425,203.142 220.909,202.551 222.105 C 201.960 223.302,201.366 224.281,201.230 224.281 C 201.094 224.281,200.982 224.470,200.982 224.702 C 200.982 224.933,200.871 225.123,200.734 225.123 C 200.598 225.123,200.414 225.344,200.326 225.614 C 200.237 225.884,199.864 226.611,199.496 227.228 C 199.127 227.846,198.385 229.172,197.845 230.175 C 196.829 232.066,195.350 234.567,194.521 235.795 C 193.637 237.104,193.576 237.717,194.311 237.901 C 196.064 238.341,206.650 237.260,212.211 236.073 C 216.600 235.136,217.593 234.932,218.599 234.760 C 219.102 234.675,219.583 234.492,219.668 234.355 C 219.753 234.218,220.051 234.105,220.330 234.105 C 220.609 234.105,221.454 233.870,222.208 233.581 C 222.962 233.293,224.084 232.906,224.702 232.721 C 225.319 232.536,226.077 232.275,226.386 232.142 C 226.695 232.009,227.642 231.651,228.491 231.348 C 232.406 229.950,241.656 225.366,243.110 224.104 C 243.354 223.892,243.644 223.719,243.755 223.719 C 243.866 223.719,244.648 223.277,245.493 222.737 C 246.337 222.196,247.152 221.754,247.304 221.754 C 247.455 221.754,247.579 221.628,247.579 221.474 C 247.579 221.319,247.726 221.193,247.906 221.193 C 248.086 221.193,248.434 221.003,248.678 220.771 C 248.923 220.540,249.881 219.779,250.807 219.081 C 257.408 214.106,259.219 212.480,264.842 206.471 C 266.183 205.038,267.525 203.514,269.056 201.684 C 270.244 200.265,270.469 197.627,269.404 197.616 C 269.288 197.615,269.193 197.425,269.193 197.193 C 269.193 196.961,269.082 196.772,268.946 196.772 C 268.811 196.772,268.535 196.361,268.334 195.860 C 268.133 195.358,267.630 194.442,267.215 193.825 C 266.504 192.765,265.850 191.596,264.091 188.240 C 263.678 187.452,263.204 186.654,263.038 186.468 C 262.872 186.282,262.737 186.071,262.737 186.000 C 262.737 185.929,261.964 184.565,261.020 182.970 C 260.076 181.375,258.899 179.312,258.405 178.386 C 257.158 176.050,256.307 174.586,255.686 173.711 C 255.396 173.301,255.158 172.828,255.158 172.658 C 255.158 172.489,255.062 172.351,254.946 172.351 C 254.829 172.351,254.558 171.940,254.343 171.439 C 254.129 170.937,253.801 170.337,253.614 170.105 C 253.427 169.874,252.909 168.989,252.462 168.140 C 252.015 167.291,251.492 166.430,251.298 166.226 C 251.105 166.022,250.947 165.727,250.947 165.571 C 250.947 165.416,250.522 164.635,250.003 163.837 C 249.484 163.039,248.589 161.502,248.016 160.421 C 247.442 159.340,246.798 158.262,246.585 158.025 C 246.371 157.788,246.001 157.156,245.761 156.621 C 245.521 156.087,245.171 155.396,244.983 155.088 C 244.794 154.779,244.322 153.990,243.934 153.334 C 243.240 152.161,242.526 151.758,242.526 152.538 " stroke="none" fill="#25b263" fill-rule="evenodd"></path><path id="path2" d="M0.000 140.351 L 0.000 280.702 200.000 280.702 L 400.000 280.702 400.000 140.351 L 400.000 0.000 200.000 0.000 L 0.000 0.000 0.000 140.351 M194.404 43.567 C 194.523 43.941,194.475 44.227,194.283 44.292 C 194.108 44.350,193.965 44.566,193.965 44.772 C 193.965 45.304,190.923 51.078,190.162 51.990 C 189.812 52.410,189.172 53.452,188.739 54.306 C 188.307 55.161,187.853 55.860,187.731 55.860 C 187.609 55.860,187.509 56.088,187.509 56.366 C 187.509 56.645,187.111 57.497,186.625 58.261 C 185.807 59.548,185.180 60.612,184.467 61.926 C 184.310 62.218,183.603 63.414,182.897 64.585 C 182.191 65.756,181.614 66.836,181.614 66.986 C 181.614 67.136,181.216 67.883,180.730 68.647 C 180.244 69.410,179.530 70.604,179.143 71.298 C 178.756 71.993,177.954 73.313,177.360 74.231 C 176.767 75.150,176.281 76.043,176.281 76.216 C 176.281 76.390,175.905 77.028,175.446 77.634 C 174.988 78.241,174.609 78.870,174.604 79.033 C 174.600 79.196,174.218 79.926,173.754 80.657 C 173.291 81.387,172.912 82.169,172.912 82.396 C 172.912 82.622,172.806 82.807,172.676 82.807 C 172.546 82.807,172.073 83.445,171.624 84.225 C 171.174 85.005,170.273 86.552,169.621 87.663 C 168.969 88.775,168.223 90.158,167.964 90.737 C 167.706 91.316,167.402 91.789,167.290 91.789 C 167.177 91.789,166.921 92.200,166.720 92.702 C 166.519 93.204,166.020 94.119,165.611 94.737 C 165.201 95.354,164.785 96.082,164.686 96.354 C 164.587 96.626,163.927 97.736,163.220 98.820 C 162.512 99.903,161.757 101.290,161.542 101.901 C 161.326 102.512,160.911 103.268,160.620 103.581 C 160.328 103.894,159.915 104.495,159.700 104.917 C 159.486 105.339,158.994 106.189,158.607 106.807 C 158.220 107.425,157.486 108.743,156.977 109.737 C 156.467 110.732,155.911 111.713,155.740 111.920 C 155.385 112.347,153.361 115.816,152.008 118.316 C 151.506 119.242,150.763 120.491,150.355 121.092 C 149.947 121.692,149.614 122.275,149.614 122.387 C 149.614 122.713,145.443 129.966,145.002 130.407 C 144.437 130.972,143.180 130.916,142.959 130.316 C 142.859 130.046,142.686 129.761,142.574 129.684 C 142.462 129.607,142.000 128.849,141.547 128.000 C 141.094 127.151,140.293 125.740,139.765 124.865 C 138.734 123.154,137.466 120.941,136.556 119.266 C 136.245 118.693,135.786 117.992,135.537 117.708 C 135.288 117.425,134.997 116.906,134.890 116.556 C 134.677 115.857,132.535 112.225,132.203 112.000 C 132.089 111.923,131.628 111.102,131.177 110.175 C 130.139 108.039,127.791 103.852,127.322 103.298 C 127.126 103.067,126.357 101.740,125.613 100.351 C 124.869 98.961,123.820 97.130,123.280 96.281 C 122.741 95.432,121.963 94.105,121.553 93.333 C 121.142 92.561,120.550 91.488,120.238 90.947 C 119.926 90.407,119.255 89.207,118.747 88.281 C 118.239 87.354,117.667 86.407,117.477 86.175 C 115.892 84.243,115.541 81.951,116.596 80.421 C 119.957 75.544,128.549 66.908,133.633 63.298 C 134.285 62.835,135.316 62.046,135.925 61.545 C 136.534 61.044,137.432 60.444,137.920 60.212 C 138.408 59.980,139.249 59.411,139.789 58.948 C 140.330 58.485,140.910 58.106,141.079 58.106 C 141.248 58.106,141.615 57.853,141.895 57.544 C 142.174 57.235,142.596 56.982,142.832 56.982 C 143.069 56.982,143.523 56.742,143.842 56.448 C 144.354 55.976,145.611 55.316,152.515 51.899 C 153.416 51.453,154.275 51.088,154.424 51.088 C 154.572 51.088,155.225 50.829,155.873 50.512 C 157.912 49.518,161.220 48.259,165.895 46.697 C 169.403 45.526,175.838 44.311,182.700 43.525 C 183.991 43.377,185.118 43.186,185.203 43.102 C 185.762 42.542,194.215 42.969,194.404 43.567 M211.088 44.365 C 213.018 44.680,215.481 45.170,216.561 45.453 C 217.642 45.736,219.284 46.133,220.211 46.335 C 221.137 46.537,222.653 47.036,223.579 47.444 C 224.505 47.852,225.893 48.343,226.663 48.535 C 227.433 48.727,228.191 48.981,228.347 49.100 C 228.504 49.219,229.232 49.479,229.965 49.677 C 230.698 49.876,231.298 50.117,231.298 50.214 C 231.298 50.310,231.709 50.554,232.211 50.755 C 234.050 51.492,241.284 55.184,242.588 56.051 C 243.326 56.543,244.214 57.031,244.562 57.136 C 244.909 57.242,245.446 57.542,245.754 57.805 C 246.063 58.068,246.632 58.497,247.018 58.760 C 247.404 59.023,248.414 59.750,249.263 60.376 C 250.112 61.002,251.249 61.806,251.789 62.163 C 252.330 62.519,253.530 63.462,254.456 64.258 C 255.382 65.053,256.629 66.110,257.225 66.607 C 261.151 69.871,265.182 73.920,268.290 77.719 C 269.631 79.359,270.857 80.842,271.014 81.014 C 271.170 81.185,272.025 82.385,272.914 83.680 C 273.802 84.975,274.969 86.667,275.507 87.439 C 277.519 90.324,278.470 92.532,277.917 93.032 C 277.059 93.809,178.102 93.682,177.123 92.903 C 176.468 92.381,176.454 92.319,176.910 91.967 C 177.179 91.760,177.656 91.009,177.971 90.298 C 178.285 89.587,178.664 88.930,178.814 88.838 C 178.963 88.746,179.722 87.489,180.500 86.045 C 181.279 84.601,182.100 83.267,182.326 83.079 C 182.552 82.892,182.737 82.548,182.737 82.315 C 182.737 81.899,183.783 79.996,184.163 79.719 C 184.269 79.642,184.769 78.821,185.275 77.895 C 186.502 75.644,186.725 75.256,187.449 74.105 C 187.790 73.565,188.069 72.958,188.069 72.755 C 188.070 72.553,188.439 71.922,188.889 71.352 C 189.722 70.298,190.357 69.224,191.651 66.683 C 192.462 65.091,194.190 62.116,194.676 61.474 C 194.852 61.242,195.169 60.611,195.382 60.070 C 195.595 59.530,195.983 58.855,196.245 58.571 C 196.507 58.286,197.017 57.465,197.378 56.746 C 197.739 56.027,198.509 54.719,199.088 53.840 C 199.667 52.961,200.140 52.127,200.140 51.987 C 200.140 51.848,200.524 51.204,200.992 50.557 C 201.461 49.911,201.776 49.271,201.692 49.136 C 201.609 49.001,201.636 48.848,201.753 48.796 C 202.073 48.654,203.228 46.941,203.228 46.608 C 203.228 46.447,203.341 46.316,203.478 46.316 C 203.616 46.316,203.809 45.997,203.907 45.607 C 204.400 43.642,205.497 43.452,211.088 44.365 M111.607 93.078 C 112.160 93.942,112.802 95.110,113.035 95.675 C 113.268 96.240,113.738 97.081,114.080 97.544 C 114.422 98.007,114.865 98.792,115.065 99.289 C 115.265 99.786,115.605 100.338,115.820 100.516 C 116.035 100.695,116.211 101.046,116.212 101.298 C 116.213 101.549,116.530 102.133,116.917 102.596 C 117.305 103.060,117.795 103.831,118.007 104.310 C 118.220 104.789,119.039 106.156,119.828 107.348 C 120.617 108.540,121.263 109.643,121.263 109.800 C 121.263 109.957,122.020 111.324,122.945 112.838 C 123.870 114.352,124.713 115.825,124.818 116.111 C 124.923 116.397,125.462 117.326,126.015 118.175 C 126.568 119.025,127.448 120.540,127.971 121.544 C 128.494 122.547,129.080 123.558,129.274 123.789 C 129.468 124.021,129.860 124.668,130.146 125.227 C 131.235 127.352,132.004 128.669,132.795 129.761 C 133.246 130.383,133.614 130.994,133.614 131.120 C 133.614 131.246,134.119 132.131,134.737 133.087 C 135.354 134.042,135.860 134.951,135.860 135.107 C 135.860 135.450,138.843 140.544,139.505 141.333 C 139.764 141.642,140.192 142.481,140.456 143.197 C 140.719 143.913,141.751 145.711,142.748 147.192 C 143.745 148.673,144.561 150.046,144.561 150.242 C 144.561 150.438,145.062 151.419,145.674 152.422 C 146.286 153.425,147.009 154.688,147.280 155.228 C 147.552 155.768,148.107 156.716,148.514 157.333 C 148.921 157.951,149.738 159.340,150.329 160.421 C 150.919 161.502,151.758 162.948,152.193 163.634 C 152.627 164.320,152.982 165.047,152.982 165.248 C 152.982 165.449,153.109 165.614,153.263 165.614 C 153.418 165.614,153.544 165.788,153.544 166.001 C 153.544 166.213,153.724 166.537,153.944 166.719 C 154.164 166.902,154.745 167.896,155.235 168.929 C 155.725 169.962,156.272 170.934,156.449 171.088 C 156.627 171.243,157.140 172.064,157.589 172.913 C 158.039 173.762,158.899 175.382,159.500 176.513 C 161.175 179.664,163.801 179.368,134.159 179.368 C 117.222 179.368,108.128 179.467,107.630 179.656 C 105.791 180.356,102.504 178.933,102.466 177.422 C 102.453 176.895,101.308 173.655,101.071 173.474 C 100.970 173.396,100.586 172.070,100.218 170.526 C 99.850 168.982,99.461 167.593,99.354 167.439 C 99.247 167.284,99.013 166.526,98.832 165.754 C 98.652 164.982,98.310 163.530,98.073 162.526 C 95.774 152.811,95.188 138.740,96.600 127.158 C 96.971 124.107,96.962 124.159,97.395 122.667 C 97.597 121.972,98.109 119.825,98.534 117.895 C 99.349 114.195,100.577 109.716,101.037 108.772 C 101.187 108.463,101.442 107.692,101.602 107.057 C 101.763 106.423,102.337 105.056,102.877 104.019 C 103.418 102.983,103.860 101.938,103.860 101.697 C 103.860 101.456,104.097 100.865,104.387 100.384 C 104.677 99.903,105.072 99.004,105.265 98.386 C 105.611 97.275,105.940 96.682,108.100 93.263 C 109.579 90.922,110.207 90.889,111.607 93.078 M282.714 102.453 C 283.259 102.457,284.114 103.745,284.764 105.544 C 285.876 108.616,287.991 115.272,287.995 115.709 C 287.998 115.974,288.204 116.793,288.454 117.528 C 288.704 118.263,289.008 119.499,289.131 120.275 C 289.254 121.050,289.550 122.461,289.790 123.410 C 290.030 124.359,290.294 125.874,290.377 126.778 C 290.461 127.682,290.648 129.621,290.794 131.088 C 291.936 142.590,290.922 154.779,287.846 166.543 C 286.416 172.012,286.058 173.166,285.381 174.503 C 284.996 175.262,284.468 176.636,284.207 177.556 C 283.946 178.476,283.450 179.733,283.106 180.351 C 282.762 180.968,282.311 181.916,282.104 182.456 C 281.896 182.996,281.511 183.754,281.248 184.140 C 280.984 184.526,280.290 185.789,279.705 186.947 C 279.120 188.105,278.568 189.116,278.479 189.193 C 278.389 189.270,278.176 189.586,278.004 189.895 C 277.187 191.369,276.069 190.074,272.421 183.433 C 271.340 181.465,270.330 179.709,270.175 179.531 C 269.725 179.010,269.193 177.999,269.193 177.662 C 269.193 177.317,266.928 173.948,266.596 173.801 C 266.481 173.750,266.386 173.495,266.386 173.235 C 266.386 172.975,266.093 172.322,265.736 171.784 C 265.378 171.247,264.538 169.796,263.869 168.561 C 263.201 167.326,262.167 165.596,261.572 164.717 C 260.978 163.838,260.491 162.997,260.491 162.849 C 260.491 162.581,258.684 159.269,258.247 158.737 C 258.121 158.582,257.644 157.761,257.189 156.912 C 255.775 154.276,254.420 151.969,253.123 149.989 C 252.698 149.341,252.351 148.701,252.351 148.566 C 252.351 148.431,251.996 147.759,251.562 147.072 C 251.128 146.386,250.406 145.130,249.958 144.281 C 249.509 143.432,248.808 142.232,248.398 141.614 C 247.989 140.996,247.290 139.817,246.845 138.993 C 245.737 136.943,245.416 136.382,243.687 133.474 C 242.861 132.084,241.693 130.119,241.092 129.106 C 240.492 128.093,240.000 127.183,240.000 127.083 C 240.000 126.984,239.672 126.423,239.270 125.837 C 238.869 125.251,238.422 124.519,238.278 124.211 C 238.133 123.902,237.584 122.954,237.056 122.105 C 236.529 121.256,235.640 119.638,235.081 118.510 C 234.522 117.382,233.694 115.911,233.243 115.241 C 232.791 114.572,232.421 113.895,232.421 113.737 C 232.421 113.579,232.326 113.408,232.211 113.357 C 231.968 113.249,231.424 112.357,229.957 109.658 C 228.299 106.609,228.034 106.150,227.258 104.978 C 226.442 103.744,226.324 102.878,226.927 102.540 C 227.218 102.377,263.106 102.321,282.714 102.453 M244.030 151.500 C 244.361 151.919,244.770 152.519,244.938 152.833 C 245.864 154.554,246.616 155.783,247.432 156.912 C 247.935 157.607,248.507 158.681,248.705 159.298 C 248.902 159.916,249.144 160.484,249.242 160.561 C 249.588 160.833,251.789 164.669,251.789 164.999 C 251.789 165.183,251.884 165.334,252.000 165.336 C 252.116 165.337,252.353 165.621,252.527 165.967 C 253.896 168.687,254.413 169.594,255.789 171.695 C 256.214 172.343,256.561 172.940,256.561 173.022 C 256.561 173.104,257.065 173.965,257.682 174.936 C 258.298 175.907,258.803 176.843,258.804 177.015 C 258.806 177.187,259.077 177.671,259.407 178.091 C 259.738 178.511,260.542 179.823,261.194 181.006 C 263.535 185.254,265.386 188.494,265.550 188.632 C 265.641 188.709,265.891 189.214,266.106 189.754 C 266.466 190.664,267.424 192.234,267.818 192.561 C 267.911 192.639,268.430 193.586,268.970 194.667 C 269.511 195.747,270.224 197.074,270.555 197.614 C 271.496 199.153,271.326 200.634,270.035 202.123 C 269.804 202.390,268.414 204.035,266.947 205.779 C 265.481 207.523,263.775 209.440,263.158 210.038 C 261.045 212.086,258.881 214.035,257.230 215.376 C 256.322 216.114,254.821 217.361,253.895 218.146 C 252.968 218.932,251.705 219.890,251.088 220.276 C 250.470 220.662,249.523 221.390,248.982 221.894 C 248.442 222.399,247.495 223.039,246.877 223.317 C 246.260 223.595,245.249 224.156,244.632 224.563 C 244.014 224.970,242.688 225.771,241.684 226.342 C 240.681 226.913,239.670 227.496,239.439 227.638 C 239.207 227.780,238.260 228.232,237.333 228.643 C 236.407 229.054,234.512 229.946,233.123 230.624 C 231.733 231.302,229.439 232.227,228.024 232.678 C 226.610 233.129,225.161 233.654,224.805 233.844 C 224.450 234.034,223.334 234.416,222.325 234.691 C 221.316 234.967,219.354 235.514,217.965 235.908 C 214.788 236.808,211.905 237.352,207.439 237.895 C 205.509 238.130,203.157 238.447,202.213 238.600 C 199.462 239.044,192.981 238.961,192.578 238.476 C 192.176 237.991,193.018 236.077,195.242 232.421 C 196.041 231.109,197.014 229.402,197.406 228.628 C 198.293 226.874,200.769 222.693,201.477 221.754 C 201.768 221.368,202.228 220.484,202.500 219.789 C 202.772 219.095,203.156 218.337,203.352 218.105 C 204.077 217.252,206.035 213.707,206.035 213.247 C 206.035 212.986,206.143 212.772,206.276 212.772 C 206.500 212.772,208.507 209.520,209.494 207.559 C 209.733 207.084,210.118 206.539,210.349 206.346 C 210.581 206.154,210.853 205.625,210.952 205.171 C 211.052 204.717,211.299 204.180,211.502 203.977 C 211.704 203.775,212.198 202.987,212.599 202.226 C 213.001 201.465,213.645 200.337,214.030 199.719 C 214.416 199.102,214.852 198.322,214.999 197.987 C 215.147 197.652,215.699 196.767,216.225 196.022 C 216.752 195.277,217.321 194.256,217.489 193.755 C 217.657 193.254,218.120 192.417,218.517 191.896 C 218.915 191.375,219.531 190.396,219.887 189.720 C 221.604 186.456,222.719 184.511,223.166 184.000 C 223.436 183.691,224.001 182.744,224.422 181.895 C 224.843 181.046,225.345 180.161,225.538 179.930 C 225.731 179.698,226.430 178.498,227.091 177.263 C 227.753 176.028,228.528 174.682,228.814 174.272 C 229.099 173.863,229.333 173.463,229.333 173.384 C 229.333 173.305,230.028 172.013,230.877 170.514 C 231.726 169.014,232.421 167.707,232.421 167.609 C 232.421 167.360,233.573 165.224,233.800 165.053 C 234.093 164.831,236.724 160.524,237.229 159.439 C 237.481 158.898,237.953 158.179,238.279 157.840 C 238.605 157.500,239.191 156.553,239.581 155.734 C 241.810 151.063,242.881 150.044,244.030 151.500 M209.782 188.966 C 210.107 189.482,209.333 191.354,208.119 192.982 C 207.774 193.446,207.083 194.646,206.584 195.649 C 206.085 196.653,205.456 197.726,205.187 198.035 C 204.918 198.344,204.226 199.481,203.650 200.561 C 203.073 201.642,202.372 202.849,202.092 203.244 C 201.812 203.639,201.365 204.523,201.099 205.209 C 200.834 205.895,200.406 206.709,200.148 207.018 C 199.890 207.326,199.134 208.526,198.467 209.684 C 197.801 210.842,197.020 212.132,196.733 212.550 C 196.446 212.968,196.211 213.449,196.211 213.618 C 196.211 213.787,195.705 214.670,195.088 215.579 C 194.470 216.488,193.965 217.312,193.965 217.410 C 193.965 217.507,193.270 218.751,192.421 220.174 C 191.572 221.597,190.877 222.898,190.877 223.066 C 190.877 223.233,190.686 223.529,190.451 223.723 C 190.217 223.918,189.444 225.102,188.734 226.354 C 188.023 227.607,187.183 229.074,186.867 229.614 C 186.550 230.154,186.046 231.102,185.746 231.719 C 185.446 232.337,184.898 233.244,184.530 233.736 C 184.161 234.227,183.860 234.835,183.860 235.087 C 183.860 237.326,181.518 238.434,178.246 237.744 C 177.551 237.598,175.999 237.356,174.797 237.206 C 173.595 237.057,171.889 236.727,171.007 236.474 C 170.125 236.221,168.519 235.774,167.439 235.482 C 166.358 235.189,164.716 234.690,163.789 234.372 C 162.863 234.054,161.726 233.687,161.263 233.556 C 159.075 232.936,154.891 231.296,154.147 230.766 C 153.690 230.441,153.234 230.175,153.132 230.175 C 153.030 230.175,152.292 229.874,151.491 229.506 C 150.690 229.138,149.502 228.615,148.850 228.344 C 148.199 228.074,147.453 227.617,147.193 227.330 C 146.933 227.042,146.617 226.807,146.491 226.807 C 146.366 226.807,145.154 226.145,143.798 225.335 C 142.442 224.525,140.954 223.697,140.491 223.495 C 140.028 223.293,139.270 222.777,138.807 222.349 C 138.344 221.920,137.081 220.955,136.000 220.204 C 134.339 219.051,132.229 217.421,130.919 216.281 C 127.976 213.718,123.338 209.355,122.656 208.507 C 122.170 207.901,120.868 206.424,119.763 205.224 C 118.658 204.024,117.249 202.372,116.632 201.551 C 116.014 200.731,115.181 199.667,114.781 199.188 C 114.381 198.708,113.713 197.747,113.297 197.053 C 112.880 196.358,112.308 195.474,112.025 195.088 C 109.358 191.451,108.416 189.449,109.064 188.801 C 109.777 188.088,209.331 188.251,209.782 188.966 " stroke="none" fill="#fbfbfb" fill-rule="evenodd"></path><path id="path3" d="M204.418 45.865 C 203.920 46.698,202.774 48.687,201.872 50.286 C 200.970 51.885,199.753 54.014,199.169 55.018 C 198.585 56.021,197.887 57.221,197.619 57.684 C 197.351 58.147,196.734 59.195,196.250 60.012 C 195.765 60.830,195.368 61.554,195.368 61.621 C 195.368 61.689,194.877 62.548,194.276 63.530 C 192.800 65.941,192.223 67.088,192.485 67.088 C 192.605 67.088,193.015 66.488,193.398 65.754 C 193.780 65.021,194.411 63.971,194.801 63.421 C 195.190 62.870,195.815 61.765,196.188 60.965 C 196.562 60.164,196.973 59.509,197.101 59.509 C 197.229 59.509,197.333 59.399,197.333 59.265 C 197.333 58.915,199.939 54.334,200.202 54.222 C 200.322 54.171,200.421 53.897,200.421 53.614 C 200.421 53.331,200.522 53.057,200.645 53.006 C 200.861 52.915,202.410 50.348,204.173 47.158 C 205.726 44.349,205.049 44.509,211.228 45.487 C 212.154 45.634,213.452 45.834,214.112 45.932 C 214.771 46.029,215.379 46.219,215.462 46.353 C 215.544 46.487,215.943 46.596,216.348 46.596 C 216.752 46.596,217.471 46.714,217.945 46.858 C 218.419 47.002,219.375 47.269,220.070 47.452 C 220.765 47.634,221.586 47.898,221.895 48.039 C 222.204 48.180,223.214 48.534,224.140 48.827 C 226.228 49.486,230.137 50.921,231.523 51.536 C 234.090 52.675,235.509 53.387,235.641 53.601 C 235.720 53.728,236.099 53.911,236.483 54.008 C 236.867 54.104,237.842 54.573,238.650 55.049 C 239.458 55.525,240.945 56.366,241.954 56.918 C 243.685 57.863,249.021 61.287,249.860 61.991 C 250.072 62.169,251.193 63.039,252.351 63.926 C 258.639 68.740,265.416 75.506,270.532 82.078 C 270.880 82.526,271.222 82.836,271.292 82.767 C 271.696 82.363,264.247 73.916,259.959 69.916 C 251.486 62.013,240.149 54.568,231.269 51.078 C 230.436 50.750,229.375 50.313,228.912 50.105 C 228.449 49.898,227.249 49.452,226.246 49.116 C 225.242 48.779,224.168 48.399,223.860 48.270 C 223.551 48.142,222.793 47.885,222.175 47.699 C 221.558 47.513,220.737 47.260,220.351 47.136 C 219.301 46.802,215.194 45.866,212.491 45.347 C 211.179 45.095,209.496 44.767,208.751 44.620 C 205.875 44.049,205.428 44.178,204.418 45.865 M191.942 67.523 C 191.853 67.669,191.514 68.263,191.189 68.842 C 190.329 70.371,189.795 71.301,187.448 75.368 C 179.314 89.461,177.679 92.396,177.829 92.639 C 178.072 93.032,277.238 93.013,277.482 92.619 C 277.581 92.457,277.115 91.415,276.445 90.303 C 275.776 89.191,275.165 88.154,275.088 88.000 C 274.737 87.300,271.979 83.388,271.724 83.231 C 271.196 82.905,271.432 83.384,272.533 84.874 C 273.135 85.689,273.981 87.010,274.413 87.809 C 274.845 88.609,275.300 89.263,275.424 89.263 C 275.548 89.263,275.649 89.453,275.649 89.684 C 275.649 89.916,275.750 90.105,275.873 90.105 C 276.108 90.105,276.772 91.728,276.772 92.301 C 276.772 92.554,265.150 92.632,227.509 92.632 C 200.414 92.632,178.246 92.562,178.246 92.478 C 178.246 92.132,179.905 88.982,180.235 88.702 C 180.417 88.548,181.733 86.267,182.908 84.070 C 183.321 83.298,184.146 81.864,184.742 80.884 C 185.337 79.903,185.825 78.924,185.825 78.708 C 185.825 78.492,185.951 78.316,186.105 78.316 C 186.260 78.316,186.386 78.126,186.386 77.895 C 186.386 77.663,186.497 77.474,186.633 77.474 C 186.768 77.474,187.045 77.063,187.248 76.561 C 187.451 76.060,187.688 75.586,187.774 75.509 C 187.859 75.432,188.170 74.926,188.464 74.386 C 188.758 73.846,189.358 72.860,189.797 72.196 C 190.237 71.533,190.596 70.894,190.596 70.778 C 190.596 70.661,190.981 69.959,191.452 69.217 C 191.922 68.476,192.261 67.731,192.205 67.562 C 192.144 67.380,192.037 67.364,191.942 67.523 M109.098 92.842 C 108.149 94.349,107.337 96.044,107.922 95.298 C 108.164 94.989,108.549 94.514,108.777 94.242 C 109.006 93.970,109.193 93.561,109.193 93.332 C 109.193 92.623,110.309 93.029,110.796 93.914 C 111.044 94.367,111.604 95.368,112.040 96.140 C 112.476 96.912,112.953 97.816,113.101 98.148 C 113.248 98.481,113.503 98.835,113.666 98.936 C 113.829 99.037,114.281 99.776,114.669 100.577 C 115.057 101.379,115.648 102.477,115.980 103.018 C 116.649 104.103,117.510 105.587,118.586 107.509 C 118.975 108.204,119.672 109.404,120.135 110.175 C 120.598 110.947,121.182 111.989,121.433 112.491 C 121.683 112.993,122.000 113.404,122.137 113.404 C 122.274 113.404,122.386 113.646,122.386 113.942 C 122.386 114.237,122.481 114.522,122.596 114.573 C 122.800 114.664,123.371 115.667,124.888 118.596 C 125.287 119.368,125.692 120.063,125.787 120.140 C 125.882 120.218,126.373 121.039,126.879 121.965 C 127.385 122.891,128.110 124.117,128.490 124.688 C 129.186 125.736,129.765 126.754,130.694 128.561 C 130.972 129.102,131.283 129.607,131.387 129.684 C 131.490 129.761,131.819 130.330,132.117 130.947 C 132.764 132.288,134.220 134.820,134.457 135.018 C 134.550 135.095,134.843 135.626,135.109 136.197 C 135.375 136.769,135.753 137.401,135.948 137.601 C 136.144 137.801,136.586 138.533,136.931 139.228 C 137.276 139.923,137.996 141.186,138.531 142.035 C 139.066 142.884,139.748 144.112,140.048 144.763 C 140.347 145.414,140.980 146.510,141.454 147.199 C 141.928 147.888,142.316 148.587,142.316 148.752 C 142.316 148.917,142.411 149.053,142.526 149.054 C 142.642 149.054,143.053 149.748,143.439 150.596 C 143.825 151.445,144.235 152.139,144.351 152.139 C 144.467 152.140,144.561 152.288,144.561 152.468 C 144.561 152.648,145.130 153.707,145.825 154.822 C 146.519 155.936,147.088 156.938,147.088 157.047 C 147.088 157.157,147.325 157.582,147.616 157.992 C 148.295 158.949,149.492 160.990,150.112 162.246 C 150.378 162.786,150.660 163.291,150.737 163.368 C 150.888 163.519,151.242 164.133,152.346 166.153 C 152.732 166.860,153.400 168.007,153.831 168.702 C 155.214 170.930,156.091 172.478,156.256 172.982 C 156.344 173.253,156.528 173.474,156.664 173.474 C 156.801 173.474,156.912 173.659,156.912 173.885 C 156.912 174.112,157.418 175.079,158.035 176.034 C 158.653 176.990,159.158 177.942,159.158 178.150 C 159.158 178.752,104.427 178.568,104.144 177.965 C 104.036 177.733,103.822 177.291,103.670 176.982 C 103.517 176.674,103.218 175.821,103.003 175.088 C 102.789 174.354,102.516 173.754,102.395 173.754 C 102.274 173.754,102.175 173.446,102.175 173.069 C 102.175 172.692,102.049 172.306,101.895 172.211 C 101.740 172.115,101.614 171.750,101.614 171.399 C 101.614 171.048,101.526 170.672,101.418 170.564 C 101.310 170.456,100.938 169.330,100.592 168.061 C 100.245 166.792,99.719 164.870,99.422 163.789 C 98.943 162.046,98.629 160.396,97.683 154.667 C 95.928 144.041,96.935 126.881,99.930 116.351 C 100.106 115.733,100.313 114.912,100.392 114.526 C 100.470 114.140,100.636 113.572,100.761 113.263 C 100.886 112.954,101.144 112.133,101.334 111.439 C 101.749 109.921,102.682 107.276,103.040 106.600 C 103.182 106.332,103.298 105.859,103.298 105.548 C 103.298 105.237,103.394 104.982,103.510 104.982 C 103.627 104.982,104.023 104.193,104.390 103.228 C 104.757 102.263,105.612 100.345,106.290 98.967 C 106.967 97.588,107.478 96.328,107.424 96.167 C 107.325 95.869,104.140 102.276,104.140 102.773 C 104.140 102.923,103.931 103.449,103.676 103.943 C 103.173 104.915,101.414 109.651,101.047 111.018 C 100.923 111.481,100.509 112.933,100.127 114.246 C 97.508 123.243,96.561 130.511,96.561 141.633 C 96.561 152.499,97.605 159.573,100.718 169.825 C 101.462 172.271,103.147 176.859,103.686 177.900 L 104.120 178.741 116.271 178.943 C 132.978 179.222,159.320 179.039,159.717 178.641 C 159.939 178.419,159.904 178.234,159.591 177.975 C 159.353 177.777,159.158 177.508,159.158 177.378 C 159.158 177.247,158.544 176.094,157.793 174.816 C 156.387 172.423,147.933 157.723,139.989 143.860 C 137.512 139.537,135.031 135.242,134.475 134.316 C 133.920 133.389,133.282 132.253,133.059 131.789 C 132.835 131.326,132.444 130.632,132.190 130.246 C 131.935 129.860,130.492 127.396,128.982 124.772 C 125.658 118.993,125.306 118.378,124.412 116.787 C 124.025 116.100,123.327 114.900,122.860 114.120 C 122.393 113.340,121.548 111.881,120.983 110.877 C 120.417 109.874,119.680 108.579,119.346 108.000 C 117.808 105.341,117.448 104.711,116.339 102.737 C 115.689 101.579,114.491 99.495,113.677 98.105 C 112.864 96.716,111.701 94.726,111.092 93.684 C 109.792 91.457,109.933 91.516,109.098 92.842 M242.033 152.632 C 241.024 154.248,233.961 166.529,231.742 170.526 C 231.570 170.835,230.907 171.972,230.268 173.053 C 229.348 174.609,220.293 190.288,218.110 194.105 C 217.846 194.568,216.871 196.274,215.945 197.895 C 215.019 199.516,213.057 202.926,211.586 205.474 C 210.115 208.021,208.662 210.547,208.358 211.088 C 208.054 211.628,207.074 213.333,206.179 214.877 C 205.284 216.421,204.337 218.063,204.074 218.526 C 203.810 218.989,201.232 223.460,198.344 228.460 C 195.456 233.460,193.159 237.723,193.239 237.934 C 193.349 238.220,194.038 238.311,195.991 238.296 C 197.548 238.284,198.371 238.188,198.036 238.058 C 197.728 237.937,196.946 237.899,196.298 237.972 C 193.738 238.260,193.256 237.670,194.521 235.795 C 195.350 234.567,196.829 232.066,197.845 230.175 C 198.385 229.172,199.127 227.846,199.496 227.228 C 199.864 226.611,200.237 225.884,200.326 225.614 C 200.414 225.344,200.598 225.123,200.734 225.123 C 200.871 225.123,200.982 224.933,200.982 224.702 C 200.982 224.470,201.094 224.281,201.230 224.281 C 201.366 224.281,201.960 223.302,202.551 222.105 C 203.142 220.909,203.961 219.425,204.372 218.807 C 204.782 218.189,205.546 216.863,206.068 215.860 C 206.590 214.856,207.081 213.972,207.158 213.895 C 207.235 213.818,207.468 213.453,207.676 213.084 C 207.883 212.716,208.315 211.958,208.635 211.400 C 208.955 210.842,209.495 209.881,209.835 209.263 C 210.175 208.646,211.101 207.025,211.893 205.662 C 212.685 204.299,213.333 203.122,213.333 203.046 C 213.333 202.970,213.712 202.357,214.175 201.684 C 214.639 201.011,215.018 200.386,215.018 200.295 C 215.018 200.204,215.358 199.595,215.773 198.942 C 216.189 198.289,216.965 196.933,217.498 195.930 C 218.031 194.926,219.369 192.589,220.473 190.737 C 221.576 188.884,222.789 186.768,223.169 186.035 C 223.548 185.302,223.954 184.702,224.070 184.702 C 224.186 184.702,224.281 184.588,224.281 184.448 C 224.281 184.308,224.740 183.393,225.301 182.413 C 225.863 181.433,226.589 180.126,226.915 179.509 C 227.242 178.891,227.572 178.323,227.649 178.246 C 227.726 178.168,228.092 177.537,228.463 176.842 C 228.833 176.147,229.307 175.380,229.515 175.136 C 229.724 174.892,229.895 174.602,229.895 174.491 C 229.895 174.381,230.653 173.028,231.579 171.486 C 232.505 169.944,233.263 168.614,233.263 168.532 C 233.263 168.449,233.642 167.831,234.105 167.158 C 234.568 166.485,234.947 165.759,234.947 165.546 C 234.947 165.333,235.171 164.914,235.445 164.614 C 235.718 164.315,236.255 163.439,236.638 162.667 C 237.642 160.644,239.478 157.754,239.759 157.754 C 239.892 157.754,240.000 157.561,240.000 157.324 C 240.000 156.821,241.951 153.167,242.293 153.029 C 242.421 152.978,242.526 152.757,242.526 152.538 C 242.526 151.758,243.240 152.161,243.934 153.334 C 244.322 153.990,244.794 154.779,244.983 155.088 C 245.171 155.396,245.521 156.087,245.761 156.621 C 246.001 157.156,246.371 157.788,246.585 158.025 C 246.798 158.262,247.442 159.340,248.016 160.421 C 248.589 161.502,249.484 163.039,250.003 163.837 C 250.522 164.635,250.947 165.416,250.947 165.571 C 250.947 165.727,251.105 166.022,251.298 166.226 C 251.492 166.430,252.015 167.291,252.462 168.140 C 252.909 168.989,253.427 169.874,253.614 170.105 C 253.801 170.337,254.129 170.937,254.343 171.439 C 254.558 171.940,254.829 172.351,254.946 172.351 C 255.062 172.351,255.158 172.489,255.158 172.658 C 255.158 172.828,255.396 173.301,255.686 173.711 C 256.307 174.586,257.158 176.050,258.405 178.386 C 258.899 179.312,260.076 181.375,261.020 182.970 C 261.964 184.565,262.737 185.929,262.737 186.000 C 262.737 186.071,262.872 186.282,263.038 186.468 C 263.204 186.654,263.678 187.452,264.091 188.240 C 265.850 191.596,266.504 192.765,267.215 193.825 C 267.630 194.442,268.133 195.358,268.334 195.860 C 268.535 196.361,268.811 196.772,268.946 196.772 C 269.082 196.772,269.193 196.961,269.193 197.193 C 269.193 197.425,269.288 197.615,269.404 197.616 C 270.469 197.627,270.244 200.265,269.056 201.684 C 267.525 203.514,266.183 205.038,264.842 206.471 C 259.219 212.480,257.408 214.106,250.807 219.081 C 249.881 219.779,248.923 220.540,248.678 220.771 C 248.434 221.003,248.086 221.193,247.906 221.193 C 247.726 221.193,247.579 221.319,247.579 221.474 C 247.579 221.628,247.455 221.754,247.304 221.754 C 247.152 221.754,246.337 222.196,245.493 222.737 C 244.648 223.277,243.866 223.719,243.755 223.719 C 243.644 223.719,243.354 223.892,243.110 224.104 C 241.656 225.366,232.406 229.950,228.491 231.348 C 227.642 231.651,226.695 232.009,226.386 232.142 C 226.077 232.275,225.319 232.536,224.702 232.721 C 224.084 232.906,222.962 233.293,222.208 233.581 C 221.454 233.870,220.609 234.105,220.330 234.105 C 220.051 234.105,219.753 234.218,219.668 234.355 C 219.583 234.492,219.102 234.674,218.599 234.759 C 217.590 234.929,216.206 235.214,212.211 236.073 C 209.808 236.590,207.620 236.907,200.982 237.702 L 198.877 237.954 200.508 237.994 C 201.404 238.017,203.046 237.908,204.157 237.752 C 205.267 237.596,207.123 237.335,208.281 237.173 C 209.439 237.010,211.333 236.680,212.491 236.439 C 213.649 236.198,214.912 235.940,215.298 235.866 C 217.658 235.414,226.188 232.772,228.632 231.737 C 229.095 231.541,230.358 231.016,231.439 230.570 C 244.147 225.331,258.706 214.758,266.964 204.772 C 271.371 199.443,271.189 199.897,269.858 197.571 C 269.298 196.591,268.456 195.095,267.987 194.246 C 267.518 193.396,266.608 191.818,265.964 190.737 C 265.320 189.656,264.373 188.014,263.858 187.088 C 263.343 186.161,262.208 184.204,261.335 182.737 C 260.463 181.270,259.202 179.060,258.534 177.825 C 257.866 176.589,257.101 175.263,256.834 174.877 C 256.567 174.491,255.786 173.165,255.098 171.930 C 253.926 169.827,253.411 168.921,252.102 166.667 C 251.425 165.501,248.523 160.444,247.792 159.158 C 247.485 158.618,246.901 157.607,246.494 156.913 C 245.385 155.019,244.992 154.336,244.096 152.747 C 243.098 150.977,243.067 150.976,242.033 152.632 " stroke="none" fill="#65b68b" fill-rule="evenodd"></path><path id="path4" d="M193.404 43.606 C 193.789 43.810,194.165 43.927,194.237 43.867 C 194.435 43.705,193.607 43.237,193.123 43.237 C 192.891 43.236,193.017 43.402,193.404 43.606 M159.844 188.842 C 198.909 188.899,209.283 188.987,209.479 189.264 C 209.662 189.522,209.697 189.504,209.612 189.193 C 209.510 188.821,203.756 188.772,159.977 188.771 L 110.456 188.770 159.844 188.842 M180.140 237.672 C 180.488 237.739,181.056 237.739,181.404 237.672 C 181.751 237.605,181.467 237.550,180.772 237.550 C 180.077 237.550,179.793 237.605,180.140 237.672 " stroke="none" fill="#d3c69f" fill-rule="evenodd"></path><path id="path5" d="M204.991 44.421 C 204.515 45.038,202.901 48.000,203.041 48.000 C 203.114 48.000,203.655 47.179,204.242 46.175 C 205.411 44.177,206.021 43.955,208.561 44.606 C 209.881 44.943,212.580 45.226,211.649 44.929 C 209.126 44.123,205.438 43.842,204.991 44.421 M212.515 45.296 C 212.579 45.353,213.137 45.484,213.754 45.587 C 214.559 45.722,214.758 45.694,214.456 45.488 C 214.077 45.230,212.233 45.048,212.515 45.296 M215.860 46.035 C 216.942 46.382,217.519 46.382,216.982 46.035 C 216.751 45.885,216.246 45.774,215.860 45.787 L 215.158 45.810 215.860 46.035 M218.246 46.596 C 219.085 46.957,219.786 46.957,219.228 46.596 C 218.996 46.447,218.554 46.331,218.246 46.340 L 217.684 46.355 218.246 46.596 M220.351 47.158 C 220.582 47.308,220.961 47.430,221.193 47.430 C 221.567 47.430,221.567 47.400,221.193 47.158 C 220.961 47.008,220.582 46.886,220.351 46.886 C 219.977 46.886,219.977 46.916,220.351 47.158 M223.777 48.130 C 224.022 48.401,227.963 49.745,228.102 49.605 C 228.158 49.550,227.352 49.209,226.312 48.847 C 223.567 47.892,223.561 47.890,223.777 48.130 M201.422 50.554 C 200.695 51.804,200.159 52.884,200.229 52.954 C 200.338 53.063,201.493 51.127,202.640 48.912 C 203.416 47.414,202.633 48.469,201.422 50.554 M228.491 49.813 C 228.491 49.904,228.775 50.089,229.123 50.224 C 229.470 50.359,230.418 50.733,231.228 51.055 C 233.153 51.820,233.124 51.603,231.182 50.714 C 229.357 49.878,228.491 49.588,228.491 49.813 M237.895 54.265 C 252.229 61.701,264.642 72.666,273.699 85.893 C 274.386 86.895,275.011 87.842,275.088 87.998 C 275.165 88.153,275.776 89.191,276.445 90.303 C 277.115 91.415,277.581 92.457,277.482 92.619 C 277.236 93.016,178.072 93.032,177.827 92.635 C 177.732 92.483,178.185 91.440,178.833 90.319 C 180.304 87.773,180.358 87.666,180.045 87.953 C 178.966 88.941,177.191 92.514,177.617 92.842 C 178.181 93.277,276.922 93.356,277.607 92.923 C 278.274 92.501,275.541 87.688,271.943 82.947 C 262.225 70.143,251.065 60.657,237.590 53.749 C 235.940 52.903,234.450 52.214,234.278 52.219 C 234.106 52.223,235.733 53.144,237.895 54.265 M198.670 55.230 C 198.093 56.271,197.104 58.039,196.473 59.158 C 195.842 60.277,195.386 61.193,195.461 61.193 C 195.535 61.193,196.013 60.467,196.524 59.579 C 197.602 57.705,197.759 57.433,199.104 55.088 C 199.657 54.123,200.022 53.334,199.915 53.335 C 199.807 53.336,199.247 54.189,198.670 55.230 M194.705 62.157 C 194.452 62.542,194.246 62.937,194.246 63.035 C 194.246 63.132,193.979 63.586,193.654 64.043 C 193.328 64.500,193.121 64.934,193.195 65.007 C 193.268 65.080,193.791 64.362,194.358 63.411 C 195.357 61.733,195.631 60.743,194.705 62.157 M192.749 65.614 C 192.680 65.730,192.373 66.267,192.067 66.807 C 191.761 67.347,190.850 68.926,190.042 70.316 C 188.658 72.696,188.212 73.478,186.676 76.211 C 186.329 76.828,185.915 77.494,185.755 77.691 C 185.595 77.888,185.533 78.118,185.617 78.202 C 185.701 78.286,186.619 76.862,187.657 75.037 C 189.458 71.871,189.806 71.263,191.205 68.842 C 192.815 66.056,193.160 65.404,193.023 65.404 C 192.942 65.404,192.818 65.498,192.749 65.614 M183.671 81.333 C 181.814 84.463,180.135 87.579,180.307 87.579 C 180.371 87.579,181.307 86.032,182.387 84.140 C 183.466 82.249,184.631 80.228,184.975 79.649 C 185.318 79.070,185.531 78.596,185.448 78.596 C 185.364 78.596,184.565 79.828,183.671 81.333 M108.923 92.661 C 107.980 93.963,104.011 101.859,104.203 102.051 C 104.266 102.114,104.935 100.873,105.691 99.293 C 107.262 96.008,109.380 92.161,109.741 91.938 C 109.875 91.855,110.568 92.798,111.281 94.034 C 112.853 96.761,113.303 97.033,111.862 94.386 C 110.188 91.311,109.987 91.193,108.923 92.661 M113.716 98.175 C 115.045 100.521,116.199 102.346,116.205 102.114 C 116.215 101.755,113.168 96.561,112.948 96.561 C 112.867 96.561,113.213 97.288,113.716 98.175 M103.485 103.626 C 102.886 105.150,103.059 105.323,103.719 103.860 C 103.999 103.239,104.165 102.668,104.088 102.591 C 104.010 102.513,103.739 102.979,103.485 103.626 M116.842 103.579 C 117.215 104.274,117.794 105.316,118.129 105.895 C 119.294 107.912,120.148 109.408,121.668 112.092 C 122.090 112.838,122.497 113.386,122.572 113.311 C 122.647 113.236,122.403 112.689,122.029 112.096 C 121.656 111.503,120.385 109.307,119.206 107.217 C 117.181 103.630,115.379 100.856,116.842 103.579 M102.605 105.574 C 102.101 106.934,100.962 110.310,100.768 111.018 C 100.641 111.481,100.271 112.744,99.945 113.825 C 99.189 116.334,98.192 120.741,98.345 120.895 C 98.410 120.960,98.678 120.027,98.940 118.822 C 99.202 117.617,99.733 115.558,100.119 114.246 C 100.505 112.933,100.923 111.481,101.047 111.018 C 101.172 110.554,101.662 109.109,102.137 107.805 C 102.612 106.501,102.944 105.377,102.875 105.308 C 102.806 105.239,102.685 105.359,102.605 105.574 M123.319 114.807 C 124.429 116.847,124.704 117.331,128.980 124.772 C 130.488 127.396,131.824 129.673,131.948 129.831 C 132.072 129.989,132.539 130.810,132.986 131.656 C 134.396 134.324,136.499 137.840,136.615 137.724 C 136.677 137.662,136.343 136.959,135.872 136.162 C 135.402 135.365,135.018 134.652,135.018 134.578 C 135.018 134.504,134.721 133.973,134.359 133.397 C 133.708 132.364,132.032 129.510,130.760 127.268 C 130.400 126.633,129.032 124.256,127.719 121.985 C 126.407 119.714,124.954 117.189,124.491 116.373 C 123.415 114.478,122.406 113.130,123.319 114.807 M97.840 122.542 C 97.734 123.105,97.711 123.629,97.788 123.706 C 97.866 123.784,98.015 123.386,98.121 122.823 C 98.227 122.259,98.250 121.735,98.173 121.658 C 98.095 121.581,97.946 121.979,97.840 122.542 M97.252 125.884 C 97.144 126.753,97.118 127.527,97.195 127.605 C 97.272 127.682,97.424 127.034,97.533 126.165 C 97.642 125.295,97.667 124.521,97.590 124.444 C 97.513 124.367,97.361 125.015,97.252 125.884 M96.759 129.513 C 96.650 130.268,96.578 131.468,96.599 132.180 C 96.627 133.157,96.696 132.924,96.879 131.228 C 97.153 128.699,97.062 127.403,96.759 129.513 M96.162 138.175 C 96.064 140.530,96.096 143.782,96.233 145.404 C 96.453 148.017,96.486 147.531,96.521 141.123 C 96.566 132.973,96.426 131.820,96.162 138.175 M137.054 138.667 C 140.032 143.963,140.721 145.127,140.821 145.027 C 140.951 144.897,137.976 139.684,137.172 138.634 L 136.659 137.965 137.054 138.667 M141.549 146.596 C 141.928 147.253,142.393 148.085,142.581 148.445 C 142.769 148.806,142.981 149.043,143.052 148.971 C 143.200 148.823,141.246 145.404,141.013 145.404 C 140.928 145.404,141.169 145.940,141.549 146.596 M143.791 150.456 C 145.216 153.076,148.027 157.906,148.284 158.175 C 148.750 158.665,147.204 155.739,145.715 153.313 C 144.926 152.028,144.278 150.891,144.274 150.786 C 144.271 150.682,144.006 150.281,143.686 149.895 C 143.196 149.304,143.213 149.394,143.791 150.456 M96.595 150.901 C 96.613 151.660,96.730 152.660,96.854 153.123 C 96.992 153.637,97.020 153.144,96.925 151.860 C 96.746 149.442,96.545 148.860,96.595 150.901 M242.324 151.509 C 242.222 151.779,241.739 152.632,241.249 153.404 C 240.219 155.028,239.089 157.193,239.272 157.193 C 239.341 157.193,239.803 156.467,240.299 155.579 C 242.975 150.789,242.987 150.780,244.096 152.747 C 244.545 153.543,245.103 154.522,245.337 154.922 C 245.570 155.322,246.184 156.383,246.700 157.280 C 247.217 158.177,247.695 158.855,247.764 158.786 C 247.882 158.667,245.922 155.178,244.147 152.351 C 243.276 150.963,242.640 150.669,242.324 151.509 M97.151 155.392 C 97.166 155.996,97.286 156.807,97.418 157.193 C 97.573 157.648,97.600 157.302,97.495 156.211 C 97.308 154.260,97.110 153.790,97.151 155.392 M237.735 159.509 C 237.093 160.628,236.266 162.015,235.898 162.590 C 235.529 163.166,235.228 163.712,235.228 163.803 C 235.228 163.894,234.877 164.497,234.448 165.142 C 234.018 165.788,233.481 166.695,233.255 167.158 C 233.028 167.621,232.305 168.919,231.649 170.043 C 230.501 172.010,230.174 172.759,230.710 172.196 C 230.950 171.945,231.188 171.539,232.922 168.421 C 233.309 167.726,234.825 165.074,236.291 162.526 C 237.757 159.979,239.010 157.800,239.074 157.684 C 239.138 157.568,239.126 157.474,239.046 157.474 C 238.967 157.474,238.377 158.389,237.735 159.509 M97.740 158.877 C 97.740 159.263,97.841 159.895,97.965 160.281 L 98.190 160.982 98.190 160.281 C 98.190 159.895,98.089 159.263,97.965 158.877 L 97.740 158.175 97.740 158.877 M148.903 159.368 C 149.147 159.870,149.408 160.281,149.481 160.281 C 149.760 160.281,149.580 159.834,149.029 159.158 L 148.457 158.456 148.903 159.368 M247.860 159.280 C 247.860 159.347,248.226 160.010,248.674 160.753 C 249.122 161.497,250.011 163.021,250.651 164.140 C 251.291 165.260,251.876 166.175,251.951 166.175 C 252.100 166.175,250.929 164.000,249.193 161.053 C 248.189 159.349,247.860 158.911,247.860 159.280 M149.866 160.982 C 150.340 161.898,150.728 162.406,150.726 162.105 C 150.725 161.951,150.466 161.509,150.150 161.123 C 149.769 160.657,149.674 160.610,149.866 160.982 M98.302 161.544 C 98.302 161.853,98.403 162.421,98.526 162.807 C 98.704 163.363,98.751 163.392,98.751 162.947 C 98.751 162.639,98.650 162.070,98.526 161.684 C 98.348 161.129,98.302 161.099,98.302 161.544 M151.306 163.579 C 151.650 164.158,152.814 166.179,153.894 168.070 C 155.934 171.644,156.817 172.820,155.158 169.754 C 152.839 165.469,151.073 162.526,150.820 162.526 C 150.744 162.526,150.963 163.000,151.306 163.579 M98.971 164.491 C 99.204 165.942,100.906 171.574,101.983 174.460 C 102.213 175.076,102.480 175.818,102.576 176.110 C 102.672 176.403,102.811 176.581,102.885 176.507 C 102.959 176.433,102.589 175.183,102.063 173.730 C 101.171 171.266,100.357 168.711,99.613 166.035 C 99.042 163.983,98.794 163.387,98.971 164.491 M252.076 166.667 C 252.080 166.782,252.340 167.193,252.655 167.579 L 253.227 168.281 252.782 167.368 C 252.359 166.502,252.063 166.207,252.076 166.667 M253.193 168.552 C 253.193 168.623,253.572 169.280,254.035 170.010 C 255.059 171.625,255.159 171.337,254.164 169.639 C 253.524 168.547,253.193 168.176,253.193 168.552 M255.190 172.140 C 255.373 172.488,255.923 173.404,256.412 174.175 C 256.901 174.947,257.782 176.463,258.370 177.544 C 260.103 180.727,262.831 185.263,262.944 185.149 C 263.002 185.091,262.241 183.672,261.251 181.996 C 260.262 180.319,258.989 178.126,258.422 177.123 C 257.855 176.119,257.010 174.667,256.543 173.895 C 256.076 173.123,255.622 172.270,255.534 172.000 C 255.445 171.730,255.257 171.509,255.115 171.509 C 254.973 171.509,255.007 171.793,255.190 172.140 M156.482 172.561 C 156.726 173.063,156.987 173.474,157.060 173.474 C 157.339 173.474,157.159 173.027,156.608 172.351 L 156.036 171.649 156.482 172.561 M229.792 173.315 C 228.891 174.690,228.186 176.069,228.318 176.201 C 228.392 176.275,228.732 175.786,229.074 175.115 C 229.415 174.444,229.881 173.611,230.108 173.263 C 230.335 172.916,230.458 172.632,230.380 172.632 C 230.303 172.632,230.038 172.939,229.792 173.315 M157.692 174.667 C 157.992 175.168,158.475 176.021,158.765 176.561 C 159.055 177.102,159.460 177.752,159.664 178.007 C 159.972 178.390,159.972 178.512,159.667 178.709 C 159.158 179.038,131.046 179.190,116.270 178.943 L 104.120 178.740 103.581 177.721 C 102.943 176.513,102.823 176.928,103.449 178.181 C 103.842 178.970,104.032 179.061,105.624 179.221 C 109.350 179.598,159.723 179.255,159.973 178.851 C 160.216 178.458,157.828 173.766,157.381 173.758 C 157.252 173.756,157.393 174.165,157.692 174.667 M227.705 176.898 C 227.520 177.084,227.368 177.342,227.368 177.473 C 227.368 177.604,226.926 178.402,226.386 179.247 C 225.846 180.092,225.404 180.841,225.404 180.913 C 225.404 180.984,224.919 181.834,224.328 182.802 C 223.736 183.770,222.933 185.130,222.543 185.825 C 221.822 187.108,221.367 187.901,219.476 191.158 C 218.894 192.161,218.090 193.586,217.691 194.324 C 217.291 195.062,216.204 196.940,215.274 198.496 C 214.345 200.053,213.643 201.385,213.715 201.457 C 213.786 201.529,214.157 201.041,214.538 200.373 C 214.919 199.705,215.737 198.274,216.355 197.193 C 216.974 196.112,217.731 194.786,218.036 194.246 C 218.509 193.410,227.759 177.379,228.119 176.772 C 228.309 176.452,228.083 176.520,227.705 176.898 M264.051 187.390 C 264.641 188.483,265.349 189.683,265.626 190.057 C 265.902 190.431,265.650 189.822,265.064 188.705 C 264.479 187.587,263.770 186.387,263.490 186.038 C 263.209 185.689,263.462 186.297,264.051 187.390 M266.878 192.281 C 267.350 193.130,268.012 194.330,268.350 194.947 C 268.975 196.088,269.474 196.746,269.474 196.429 C 269.474 196.162,266.663 191.336,266.322 191.018 C 266.156 190.863,266.407 191.432,266.878 192.281 M270.125 198.022 C 271.141 199.840,271.269 199.567,266.964 204.772 C 262.338 210.366,252.838 218.564,245.825 223.013 C 242.745 224.966,241.734 225.800,244.140 224.401 C 245.401 223.668,248.716 221.447,251.509 219.463 C 252.754 218.579,256.194 215.802,258.386 213.911 C 261.727 211.030,269.436 202.604,270.861 200.277 C 271.269 199.611,270.474 197.357,269.651 196.849 C 269.498 196.754,269.711 197.282,270.125 198.022 M212.185 203.860 C 211.540 204.979,210.602 206.589,210.101 207.439 C 208.961 209.369,208.229 210.807,208.386 210.807 C 208.452 210.807,209.612 208.881,210.963 206.526 C 213.932 201.353,213.677 201.825,213.503 201.825 C 213.423 201.825,212.830 202.740,212.185 203.860 M207.617 211.771 C 207.364 212.156,207.158 212.526,207.158 212.593 C 207.158 212.694,205.612 215.382,204.633 216.982 C 204.491 217.214,203.866 218.288,203.242 219.368 C 202.619 220.449,201.786 221.885,201.391 222.559 C 200.997 223.233,200.728 223.839,200.795 223.906 C 200.901 224.012,201.881 222.408,203.997 218.667 C 205.812 215.458,207.827 212.021,208.074 211.713 C 208.232 211.516,208.297 211.291,208.218 211.213 C 208.140 211.134,207.869 211.385,207.617 211.771 M199.085 226.596 C 198.324 227.870,197.218 229.796,196.627 230.877 C 196.036 231.958,195.339 233.158,195.077 233.544 C 194.038 235.077,192.641 237.914,192.761 238.246 C 192.906 238.643,197.477 238.680,200.842 238.311 C 202.038 238.180,200.970 238.153,198.111 238.243 C 194.126 238.368,193.390 238.327,193.255 237.974 C 193.126 237.638,195.409 233.455,200.613 224.491 C 200.680 224.375,200.675 224.281,200.602 224.281 C 200.529 224.281,199.847 225.323,199.085 226.596 M240.421 226.246 C 239.958 226.552,239.723 226.804,239.899 226.805 C 240.205 226.807,241.692 225.711,241.404 225.695 C 241.326 225.691,240.884 225.939,240.421 226.246 M236.351 228.301 C 233.599 229.661,230.845 230.880,228.944 231.578 C 228.498 231.741,228.202 231.945,228.286 232.029 C 228.566 232.309,238.380 227.863,239.284 227.048 C 239.721 226.654,239.435 226.776,236.351 228.301 M226.807 232.421 C 226.433 232.663,226.433 232.693,226.807 232.693 C 227.039 232.693,227.418 232.571,227.649 232.421 C 228.023 232.179,228.023 232.149,227.649 232.149 C 227.418 232.149,227.039 232.271,226.807 232.421 M225.123 232.982 C 224.749 233.224,224.749 233.255,225.123 233.255 C 225.354 233.255,225.733 233.132,225.965 232.982 C 226.339 232.741,226.339 232.710,225.965 232.710 C 225.733 232.710,225.354 232.833,225.123 232.982 M222.596 233.836 C 221.637 234.157,221.318 234.350,221.754 234.348 C 222.140 234.346,222.961 234.110,223.579 233.825 C 225.000 233.167,224.587 233.171,222.596 233.836 M219.930 234.667 C 219.389 234.899,219.390 234.909,219.983 234.928 C 220.322 234.938,220.677 234.821,220.772 234.667 C 220.977 234.335,220.702 234.335,219.930 234.667 M217.825 235.228 L 217.123 235.453 217.825 235.476 C 218.211 235.490,218.716 235.378,218.947 235.228 C 219.484 234.882,218.906 234.882,217.825 235.228 M215.579 235.785 C 212.027 236.552,210.129 236.914,208.281 237.177 C 207.123 237.343,205.418 237.597,204.491 237.743 L 202.807 238.007 204.772 237.857 C 208.360 237.583,216.451 236.134,216.900 235.685 C 217.104 235.481,216.925 235.495,215.579 235.785 " stroke="none" fill="#a6e8c4" fill-rule="evenodd"></path><path id="path6" d="M204.639 44.344 C 204.334 44.649,204.004 45.217,203.907 45.607 C 203.809 45.997,203.616 46.316,203.478 46.316 C 203.341 46.316,203.228 46.447,203.228 46.608 C 203.228 46.941,202.073 48.654,201.753 48.796 C 201.636 48.848,201.609 49.001,201.692 49.136 C 201.776 49.271,201.461 49.911,200.992 50.557 C 200.524 51.204,200.140 51.848,200.140 51.987 C 200.140 52.127,199.667 52.961,199.088 53.840 C 198.509 54.719,197.739 56.027,197.378 56.746 C 197.017 57.465,196.507 58.286,196.245 58.571 C 195.983 58.855,195.595 59.530,195.382 60.070 C 195.169 60.611,194.852 61.242,194.676 61.474 C 194.190 62.116,192.462 65.091,191.651 66.683 C 190.357 69.224,189.722 70.298,188.889 71.352 C 188.439 71.922,188.070 72.553,188.069 72.755 C 188.069 72.958,187.790 73.565,187.449 74.105 C 186.725 75.256,186.502 75.644,185.275 77.895 C 184.769 78.821,184.269 79.642,184.163 79.719 C 183.783 79.996,182.737 81.899,182.737 82.315 C 182.737 82.548,182.552 82.892,182.326 83.079 C 182.100 83.267,181.279 84.601,180.500 86.045 C 179.722 87.489,178.963 88.746,178.814 88.838 C 178.664 88.930,178.285 89.587,177.971 90.298 C 177.656 91.009,177.179 91.760,176.910 91.967 C 176.454 92.319,176.468 92.381,177.123 92.903 C 178.102 93.682,277.059 93.809,277.917 93.032 C 278.470 92.532,277.519 90.324,275.507 87.439 C 274.969 86.667,273.802 84.975,272.914 83.680 C 272.025 82.385,271.170 81.185,271.014 81.014 C 270.857 80.842,269.631 79.359,268.290 77.719 C 265.182 73.920,261.151 69.871,257.225 66.607 C 256.629 66.110,255.382 65.053,254.456 64.258 C 253.530 63.462,252.330 62.519,251.789 62.163 C 251.249 61.806,250.112 61.002,249.263 60.376 C 248.414 59.750,247.404 59.023,247.018 58.760 C 246.632 58.497,246.063 58.068,245.754 57.805 C 245.446 57.542,244.909 57.242,244.562 57.136 C 244.214 57.031,243.326 56.543,242.588 56.051 C 241.284 55.184,234.050 51.492,232.211 50.755 C 231.709 50.554,231.298 50.310,231.298 50.214 C 231.298 50.117,230.698 49.876,229.965 49.677 C 229.232 49.479,228.504 49.219,228.347 49.100 C 228.191 48.981,227.433 48.727,226.663 48.535 C 225.893 48.343,224.505 47.852,223.579 47.444 C 222.653 47.036,221.137 46.537,220.211 46.335 C 219.284 46.133,217.642 45.736,216.561 45.453 C 210.949 43.982,205.507 43.476,204.639 44.344 M210.526 44.650 C 214.720 45.497,218.004 46.250,220.070 46.840 C 220.611 46.994,221.368 47.203,221.754 47.304 C 222.140 47.406,222.646 47.556,222.877 47.639 C 223.109 47.721,224.814 48.323,226.667 48.976 C 238.164 53.031,250.907 60.886,259.899 69.460 C 264.790 74.125,267.834 77.534,271.943 82.947 C 275.541 87.688,278.274 92.501,277.607 92.923 C 276.922 93.356,178.182 93.277,177.612 92.842 C 177.199 92.527,177.302 92.248,178.631 90.097 C 179.444 88.780,180.618 86.759,181.241 85.606 C 181.863 84.452,182.978 82.498,183.718 81.263 C 184.458 80.028,185.298 78.607,185.584 78.105 C 185.871 77.604,186.376 76.719,186.706 76.140 C 187.037 75.561,187.592 74.582,187.941 73.965 C 188.289 73.347,189.234 71.705,190.042 70.316 C 191.600 67.636,192.218 66.567,193.123 64.982 C 193.432 64.442,193.920 63.589,194.209 63.088 C 194.498 62.586,195.847 60.218,197.206 57.825 C 198.566 55.432,199.782 53.432,199.909 53.380 C 200.036 53.329,200.140 53.169,200.140 53.025 C 200.140 52.801,203.576 46.686,204.836 44.666 C 205.293 43.934,206.954 43.929,210.526 44.650 M108.100 93.263 C 105.940 96.682,105.611 97.275,105.265 98.386 C 105.072 99.004,104.677 99.903,104.387 100.384 C 104.097 100.865,103.860 101.456,103.860 101.697 C 103.860 101.938,103.418 102.983,102.877 104.019 C 102.337 105.056,101.763 106.423,101.602 107.057 C 101.442 107.692,101.187 108.463,101.037 108.772 C 100.577 109.716,99.349 114.195,98.534 117.895 C 98.109 119.825,97.597 121.972,97.395 122.667 C 96.926 124.281,96.971 124.023,96.598 127.298 C 96.128 131.443,95.712 138.368,95.768 141.145 C 95.821 143.761,95.839 143.585,96.278 136.140 C 96.932 125.062,99.726 111.905,102.865 105.123 C 103.079 104.660,103.524 103.586,103.854 102.737 C 104.844 100.190,107.813 94.268,108.816 92.842 C 109.331 92.109,109.631 91.509,109.481 91.509 C 109.331 91.509,108.710 92.298,108.100 93.263 M110.772 92.561 C 111.167 93.140,111.781 94.182,112.136 94.877 C 112.491 95.572,113.401 97.151,114.159 98.386 C 114.916 99.621,115.640 100.884,115.766 101.193 C 115.892 101.502,116.049 101.611,116.116 101.435 C 116.182 101.259,115.915 100.642,115.522 100.062 C 115.129 99.483,114.807 98.892,114.807 98.749 C 114.807 98.606,114.504 98.087,114.133 97.595 C 113.762 97.104,113.268 96.240,113.035 95.675 C 112.451 94.259,110.664 91.509,110.328 91.509 C 110.176 91.509,110.376 91.982,110.772 92.561 M116.212 101.936 C 116.211 102.036,116.735 102.981,117.376 104.036 C 118.017 105.091,119.323 107.346,120.280 109.047 C 121.237 110.748,122.274 112.582,122.584 113.123 C 122.895 113.663,123.549 114.800,124.036 115.649 C 124.524 116.498,125.041 117.382,125.185 117.614 C 125.450 118.041,129.556 125.148,130.761 127.268 C 131.122 127.902,131.679 128.863,131.998 129.404 C 133.460 131.878,134.902 134.408,136.519 137.333 C 136.882 137.989,137.680 139.347,138.293 140.351 C 138.905 141.354,139.772 142.870,140.218 143.719 C 140.665 144.568,141.237 145.579,141.490 145.965 C 141.743 146.351,142.329 147.361,142.793 148.211 C 143.872 150.185,144.538 151.344,145.694 153.263 C 146.206 154.112,147.149 155.754,147.789 156.912 C 148.430 158.070,149.229 159.491,149.565 160.070 C 149.901 160.649,150.443 161.596,150.770 162.175 C 151.097 162.754,151.583 163.544,151.850 163.930 C 152.312 164.598,152.654 165.199,155.360 170.105 C 156.910 172.916,157.303 173.588,157.496 173.754 C 157.972 174.167,160.185 178.505,160.036 178.734 C 159.939 178.882,159.670 179.076,159.439 179.164 C 159.085 179.298,159.091 179.328,159.474 179.346 C 160.619 179.402,160.626 178.632,159.500 176.513 C 158.899 175.382,158.039 173.762,157.589 172.913 C 157.140 172.064,156.627 171.243,156.449 171.088 C 156.272 170.934,155.725 169.962,155.235 168.929 C 154.745 167.896,154.164 166.902,153.944 166.719 C 153.724 166.537,153.544 166.213,153.544 166.001 C 153.544 165.788,153.418 165.614,153.263 165.614 C 153.109 165.614,152.982 165.449,152.982 165.248 C 152.982 165.047,152.627 164.320,152.193 163.634 C 151.758 162.948,150.919 161.502,150.329 160.421 C 149.738 159.340,148.921 157.951,148.514 157.333 C 148.107 156.716,147.552 155.768,147.280 155.228 C 147.009 154.688,146.286 153.425,145.674 152.422 C 145.062 151.419,144.561 150.438,144.561 150.242 C 144.561 150.046,143.745 148.673,142.748 147.192 C 141.751 145.711,140.719 143.913,140.456 143.197 C 140.192 142.481,139.764 141.642,139.505 141.333 C 138.843 140.544,135.860 135.450,135.860 135.107 C 135.860 134.951,135.354 134.042,134.737 133.087 C 134.119 132.131,133.614 131.246,133.614 131.120 C 133.614 130.994,133.246 130.383,132.795 129.761 C 132.004 128.669,131.235 127.352,130.146 125.227 C 129.860 124.668,129.468 124.021,129.274 123.789 C 129.080 123.558,128.494 122.547,127.971 121.544 C 127.448 120.540,126.568 119.025,126.015 118.175 C 125.462 117.326,124.923 116.397,124.818 116.111 C 124.713 115.825,123.870 114.352,122.945 112.838 C 122.020 111.324,121.263 109.957,121.263 109.800 C 121.263 109.643,120.617 108.540,119.828 107.348 C 119.039 106.156,118.220 104.789,118.007 104.310 C 117.627 103.450,116.215 101.583,116.212 101.936 M96.137 147.649 C 96.195 149.733,96.450 153.018,96.705 154.947 C 97.182 158.562,97.335 159.409,98.077 162.526 C 98.316 163.530,98.663 165.020,98.848 165.838 C 99.032 166.655,99.308 167.401,99.461 167.496 C 99.631 167.601,99.666 167.407,99.551 166.991 C 97.942 161.161,97.049 155.876,96.424 148.491 L 96.033 143.860 96.137 147.649 M242.416 150.968 C 242.338 151.095,242.532 151.190,242.849 151.179 C 243.424 151.158,244.975 153.470,247.638 158.316 C 248.189 159.319,249.222 161.123,249.934 162.324 C 250.646 163.525,251.228 164.560,251.228 164.624 C 251.228 164.688,252.049 166.116,253.053 167.797 C 254.056 169.478,254.877 171.001,254.877 171.181 C 254.877 171.361,254.989 171.509,255.125 171.509 C 255.262 171.509,255.448 171.730,255.539 172.000 C 255.630 172.270,255.932 172.870,256.210 173.333 C 256.488 173.796,257.263 175.123,257.932 176.281 C 258.601 177.439,259.812 179.523,260.623 180.912 C 261.434 182.302,262.417 184.007,262.806 184.702 C 263.733 186.355,266.320 190.853,267.568 192.982 C 268.764 195.022,269.983 197.195,270.531 198.263 C 270.754 198.697,271.001 198.987,271.081 198.907 C 271.161 198.828,270.882 198.176,270.462 197.459 C 270.042 196.742,269.315 195.379,268.846 194.429 C 268.377 193.479,267.916 192.639,267.821 192.561 C 267.429 192.241,266.469 190.670,266.106 189.754 C 265.891 189.214,265.641 188.709,265.550 188.632 C 265.386 188.494,263.535 185.254,261.194 181.006 C 260.542 179.823,259.738 178.511,259.407 178.091 C 259.077 177.671,258.806 177.187,258.804 177.015 C 258.803 176.843,258.298 175.907,257.682 174.936 C 257.065 173.965,256.561 173.104,256.561 173.022 C 256.561 172.940,256.214 172.343,255.789 171.695 C 254.413 169.594,253.896 168.687,252.527 165.967 C 252.353 165.621,252.116 165.337,252.000 165.336 C 251.884 165.334,251.789 165.183,251.789 164.999 C 251.789 164.669,249.588 160.833,249.242 160.561 C 249.144 160.484,248.902 159.916,248.705 159.298 C 248.507 158.681,247.935 157.607,247.432 156.912 C 246.616 155.783,245.864 154.554,244.938 152.833 C 244.035 151.154,242.845 150.274,242.416 150.968 M241.687 151.996 C 241.205 152.578,240.439 153.937,239.581 155.734 C 239.191 156.553,238.605 157.500,238.279 157.840 C 237.953 158.179,237.481 158.898,237.229 159.439 C 236.724 160.524,234.093 164.831,233.800 165.053 C 233.573 165.224,232.421 167.360,232.421 167.609 C 232.421 167.707,231.726 169.014,230.877 170.514 C 230.028 172.013,229.333 173.305,229.333 173.384 C 229.333 173.463,229.099 173.863,228.814 174.272 C 228.528 174.682,227.753 176.028,227.091 177.263 C 226.430 178.498,225.731 179.698,225.538 179.930 C 225.345 180.161,224.843 181.046,224.422 181.895 C 224.001 182.744,223.436 183.691,223.166 184.000 C 222.719 184.511,221.604 186.456,219.887 189.720 C 219.531 190.396,218.915 191.375,218.517 191.896 C 218.120 192.417,217.657 193.254,217.489 193.755 C 217.321 194.256,216.752 195.277,216.225 196.022 C 215.699 196.767,215.147 197.652,214.999 197.987 C 214.852 198.322,214.416 199.102,214.030 199.719 C 213.645 200.337,213.001 201.465,212.599 202.226 C 212.198 202.987,211.704 203.775,211.502 203.977 C 211.299 204.180,211.052 204.717,210.952 205.171 C 210.853 205.625,210.581 206.154,210.349 206.346 C 210.118 206.539,209.733 207.084,209.494 207.559 C 208.507 209.520,206.500 212.772,206.276 212.772 C 206.143 212.772,206.035 212.986,206.035 213.247 C 206.035 213.707,204.077 217.252,203.352 218.105 C 203.156 218.337,202.772 219.095,202.500 219.789 C 202.228 220.484,201.768 221.368,201.477 221.754 C 200.769 222.693,198.293 226.874,197.406 228.628 C 197.014 229.402,196.041 231.109,195.242 232.421 C 193.018 236.077,192.176 237.991,192.578 238.476 C 192.981 238.961,199.462 239.044,202.213 238.600 C 203.157 238.447,205.509 238.130,207.439 237.895 C 211.905 237.352,214.788 236.808,217.965 235.908 C 219.354 235.514,221.316 234.967,222.325 234.691 C 223.334 234.416,224.450 234.034,224.805 233.844 C 225.161 233.654,226.610 233.129,228.024 232.678 C 229.439 232.227,231.733 231.302,233.123 230.624 C 234.512 229.946,236.407 229.054,237.333 228.643 C 238.260 228.232,239.207 227.780,239.439 227.638 C 239.670 227.496,240.681 226.913,241.684 226.342 C 242.688 225.771,244.014 224.970,244.632 224.563 C 245.249 224.156,246.260 223.595,246.877 223.317 C 247.495 223.039,248.442 222.399,248.982 221.894 C 249.523 221.390,250.470 220.662,251.088 220.276 C 251.705 219.890,252.968 218.932,253.895 218.146 C 254.821 217.361,256.322 216.114,257.230 215.376 C 258.881 214.035,261.045 212.086,263.158 210.038 C 263.775 209.440,265.481 207.523,266.947 205.779 C 268.414 204.035,269.804 202.390,270.035 202.123 C 270.608 201.462,271.220 200.389,271.095 200.264 C 271.039 200.208,270.431 200.884,269.745 201.765 C 265.578 207.116,260.761 212.009,255.018 216.723 C 251.690 219.454,245.579 223.679,242.667 225.261 C 241.895 225.680,240.695 226.337,240.000 226.720 C 237.081 228.328,235.714 228.992,231.158 231.014 C 229.336 231.823,222.942 234.122,222.035 234.295 C 221.649 234.368,221.081 234.531,220.772 234.656 C 220.117 234.921,218.756 235.286,214.526 236.330 C 208.240 237.881,193.407 239.229,192.833 238.301 C 192.610 237.941,193.785 235.450,195.077 233.544 C 195.339 233.158,196.036 231.958,196.627 230.877 C 197.218 229.796,198.344 227.839,199.129 226.526 C 199.915 225.214,200.874 223.562,201.261 222.855 C 201.989 221.525,204.175 217.724,204.639 216.982 C 204.783 216.751,205.301 215.867,205.788 215.018 C 206.276 214.168,206.931 213.032,207.243 212.491 C 207.556 211.951,208.344 210.561,208.994 209.404 C 209.645 208.246,210.840 206.161,211.651 204.772 C 212.462 203.382,213.443 201.677,213.830 200.982 C 214.218 200.288,215.068 198.835,215.719 197.754 C 216.370 196.674,217.243 195.158,217.660 194.386 C 218.077 193.614,218.894 192.161,219.476 191.158 C 221.367 187.901,221.822 187.108,222.543 185.825 C 222.933 185.130,223.736 183.770,224.328 182.802 C 224.919 181.834,225.404 180.984,225.404 180.913 C 225.404 180.801,225.994 179.805,227.571 177.256 C 227.760 176.951,228.130 176.260,228.395 175.719 C 228.659 175.179,229.231 174.209,229.665 173.563 C 230.100 172.918,230.456 172.322,230.456 172.238 C 230.456 172.155,230.993 171.167,231.649 170.043 C 232.305 168.919,233.027 167.621,233.253 167.158 C 233.479 166.695,233.875 166.000,234.132 165.614 C 234.390 165.228,234.852 164.470,235.159 163.930 C 235.466 163.389,236.384 161.811,237.200 160.421 C 238.015 159.032,239.247 156.884,239.937 155.649 C 240.626 154.414,241.442 153.049,241.749 152.615 C 242.342 151.778,242.291 151.269,241.687 151.996 M99.665 168.000 C 99.629 168.463,100.881 173.322,101.075 173.474 C 101.310 173.657,102.453 176.902,102.466 177.422 C 102.503 178.898,105.808 180.365,107.537 179.673 C 108.187 179.413,108.180 179.403,107.337 179.386 C 104.661 179.332,103.867 179.051,103.405 177.996 C 102.473 175.870,101.558 173.390,100.754 170.807 C 100.026 168.471,99.695 167.617,99.665 168.000 " stroke="none" fill="#c8fbe0" fill-rule="evenodd"></path><path id="path7" d="M185.203 43.102 C 185.118 43.186,183.991 43.377,182.700 43.525 C 177.201 44.155,176.570 44.249,176.361 44.473 C 176.240 44.602,176.835 44.613,177.684 44.498 C 181.944 43.919,183.266 43.794,188.038 43.515 C 193.382 43.204,194.395 43.277,194.134 43.955 C 194.051 44.173,194.105 44.351,194.254 44.351 C 194.566 44.351,194.601 44.029,194.356 43.391 C 194.187 42.951,185.624 42.680,185.203 43.102 M171.088 45.339 C 169.389 45.697,167.053 46.307,165.895 46.695 C 161.163 48.280,157.905 49.521,155.873 50.512 C 155.225 50.829,154.572 51.088,154.424 51.088 C 154.275 51.088,153.416 51.453,152.515 51.899 C 145.611 55.316,144.354 55.976,143.842 56.448 C 143.523 56.742,143.069 56.982,142.832 56.982 C 142.596 56.982,142.174 57.235,141.895 57.544 C 141.615 57.853,141.248 58.106,141.079 58.106 C 140.910 58.106,140.330 58.485,139.789 58.948 C 139.249 59.411,138.408 59.980,137.920 60.212 C 137.432 60.444,136.534 61.044,135.925 61.545 C 135.316 62.046,134.285 62.835,133.633 63.298 C 128.517 66.932,120.171 75.326,116.522 80.507 C 115.001 82.668,116.319 81.452,118.665 78.531 C 123.374 72.667,129.358 66.950,135.298 62.639 C 136.611 61.687,137.811 60.807,137.965 60.685 C 140.416 58.736,147.968 54.385,151.860 52.678 C 152.400 52.441,153.942 51.742,155.287 51.124 C 157.854 49.945,164.754 47.547,167.860 46.754 C 168.863 46.498,170.063 46.176,170.526 46.038 C 170.989 45.901,172.375 45.584,173.606 45.335 C 174.837 45.086,175.900 44.825,175.968 44.757 C 176.266 44.460,173.944 44.736,171.088 45.339 M192.840 46.370 C 192.301 47.333,191.468 48.820,190.990 49.674 C 189.494 52.347,188.964 53.263,188.273 54.368 C 187.905 54.957,187.223 56.133,186.759 56.982 C 186.295 57.832,184.676 60.674,183.162 63.298 C 181.648 65.923,180.193 68.449,179.928 68.912 C 179.663 69.375,179.050 70.423,178.566 71.240 C 178.081 72.058,177.684 72.782,177.684 72.849 C 177.684 72.916,177.242 73.663,176.702 74.507 C 176.161 75.352,175.719 76.110,175.719 76.192 C 175.719 76.274,175.214 77.166,174.596 78.175 C 173.979 79.184,173.474 80.058,173.474 80.117 C 173.474 80.175,172.989 81.026,172.397 82.006 C 171.805 82.987,170.936 84.484,170.466 85.333 C 169.996 86.182,168.886 88.140,167.998 89.684 C 167.111 91.228,166.134 92.933,165.827 93.474 C 165.519 94.014,165.030 94.791,164.739 95.201 C 164.448 95.611,164.211 96.006,164.211 96.078 C 164.211 96.151,162.884 98.515,161.263 101.333 C 159.642 104.151,158.316 106.567,158.316 106.702 C 158.316 106.837,158.189 106.947,158.035 106.947 C 157.881 106.947,157.754 107.066,157.754 107.212 C 157.754 107.357,156.664 109.347,155.331 111.633 C 153.998 113.919,152.527 116.484,152.062 117.333 C 151.598 118.182,151.123 119.004,151.007 119.158 C 150.891 119.312,150.547 119.881,150.242 120.421 C 149.937 120.961,148.707 123.109,147.509 125.193 C 146.311 127.277,145.166 129.286,144.965 129.656 C 144.763 130.027,144.432 130.435,144.229 130.564 C 143.924 130.758,143.924 130.799,144.231 130.803 C 144.859 130.810,149.614 123.376,149.614 122.387 C 149.614 122.275,149.947 121.692,150.355 121.092 C 150.763 120.491,151.506 119.242,152.008 118.316 C 153.361 115.816,155.385 112.347,155.740 111.920 C 155.911 111.713,156.467 110.732,156.977 109.737 C 157.486 108.743,158.220 107.425,158.607 106.807 C 158.994 106.189,159.486 105.339,159.700 104.917 C 159.915 104.495,160.328 103.894,160.620 103.581 C 160.911 103.268,161.326 102.512,161.542 101.901 C 161.757 101.290,162.512 99.903,163.220 98.820 C 163.927 97.736,164.587 96.626,164.686 96.354 C 164.785 96.082,165.201 95.354,165.611 94.737 C 166.020 94.119,166.519 93.204,166.720 92.702 C 166.921 92.200,167.177 91.789,167.290 91.789 C 167.402 91.789,167.706 91.316,167.964 90.737 C 168.223 90.158,168.969 88.775,169.621 87.663 C 170.273 86.552,171.174 85.005,171.624 84.225 C 172.073 83.445,172.546 82.807,172.676 82.807 C 172.806 82.807,172.912 82.622,172.912 82.396 C 172.912 82.169,173.291 81.387,173.754 80.657 C 174.218 79.926,174.600 79.196,174.604 79.033 C 174.609 78.870,174.988 78.241,175.446 77.634 C 175.905 77.028,176.281 76.390,176.281 76.216 C 176.281 76.043,176.767 75.150,177.360 74.231 C 177.954 73.313,178.756 71.993,179.143 71.298 C 179.530 70.604,180.244 69.410,180.730 68.647 C 181.216 67.883,181.614 67.136,181.614 66.986 C 181.614 66.836,182.191 65.756,182.897 64.585 C 183.603 63.414,184.310 62.218,184.467 61.926 C 185.180 60.612,185.807 59.548,186.625 58.261 C 187.111 57.497,187.509 56.645,187.509 56.366 C 187.509 56.088,187.609 55.860,187.731 55.860 C 187.853 55.860,188.307 55.161,188.739 54.306 C 189.172 53.452,189.812 52.410,190.162 51.990 C 190.945 51.052,194.015 45.203,193.902 44.865 C 193.857 44.730,193.379 45.407,192.840 46.370 M115.649 82.298 C 115.649 82.607,117.135 85.759,117.477 86.175 C 117.667 86.407,118.239 87.354,118.747 88.281 C 119.255 89.207,119.926 90.407,120.238 90.947 C 120.550 91.488,121.142 92.561,121.553 93.333 C 121.963 94.105,122.741 95.432,123.280 96.281 C 123.820 97.130,124.869 98.961,125.613 100.351 C 126.357 101.740,127.126 103.067,127.322 103.298 C 127.791 103.852,130.139 108.039,131.177 110.175 C 131.628 111.102,132.089 111.923,132.203 112.000 C 132.535 112.225,134.677 115.857,134.890 116.556 C 134.997 116.906,135.288 117.425,135.537 117.708 C 135.786 117.992,136.245 118.693,136.556 119.266 C 137.466 120.941,138.734 123.154,139.765 124.865 C 140.293 125.740,141.094 127.151,141.547 128.000 C 142.000 128.849,142.462 129.607,142.574 129.684 C 142.686 129.761,142.859 130.046,142.959 130.316 C 143.059 130.586,143.285 130.807,143.462 130.807 C 143.668 130.807,143.618 130.554,143.326 130.108 C 142.743 129.218,138.947 122.598,138.947 122.470 C 138.947 122.418,138.625 121.864,138.231 121.239 C 137.836 120.615,137.286 119.701,137.007 119.210 C 136.728 118.718,135.767 117.053,134.872 115.509 C 133.976 113.965,132.866 112.007,132.406 111.158 C 131.945 110.309,131.474 109.488,131.358 109.333 C 131.242 109.179,130.881 108.579,130.556 108.000 C 129.604 106.305,128.978 105.219,128.039 103.637 C 127.554 102.819,127.158 102.081,127.158 101.996 C 127.158 101.911,126.923 101.506,126.637 101.096 C 126.350 100.686,125.799 99.782,125.413 99.088 C 124.478 97.406,123.758 96.150,122.759 94.456 C 122.304 93.684,121.839 92.863,121.726 92.632 C 121.614 92.400,121.369 91.958,121.182 91.649 C 120.995 91.340,120.411 90.330,119.884 89.404 C 119.357 88.477,118.378 86.806,117.708 85.689 C 117.039 84.572,116.487 83.562,116.482 83.443 C 116.472 83.192,115.649 82.061,115.649 82.298 M226.927 102.540 C 226.324 102.878,226.442 103.744,227.258 104.978 C 228.034 106.150,228.299 106.609,229.957 109.658 C 231.424 112.357,231.968 113.249,232.211 113.357 C 232.326 113.408,232.421 113.579,232.421 113.737 C 232.421 113.895,232.791 114.572,233.243 115.241 C 233.694 115.911,234.522 117.382,235.081 118.510 C 235.640 119.638,236.529 121.256,237.056 122.105 C 237.584 122.954,238.133 123.902,238.278 124.211 C 238.422 124.519,238.869 125.251,239.270 125.837 C 239.672 126.423,240.000 126.984,240.000 127.083 C 240.000 127.183,240.492 128.093,241.092 129.106 C 241.693 130.119,242.861 132.084,243.687 133.474 C 245.416 136.382,245.737 136.943,246.845 138.993 C 247.290 139.817,247.989 140.996,248.398 141.614 C 248.808 142.232,249.509 143.432,249.958 144.281 C 250.406 145.130,251.128 146.386,251.562 147.072 C 251.996 147.759,252.351 148.431,252.351 148.566 C 252.351 148.701,252.698 149.341,253.123 149.989 C 254.420 151.969,255.775 154.276,257.189 156.912 C 257.644 157.761,258.121 158.582,258.247 158.737 C 258.684 159.269,260.491 162.581,260.491 162.849 C 260.491 162.997,260.978 163.838,261.572 164.717 C 262.167 165.596,263.201 167.326,263.869 168.561 C 264.538 169.796,265.378 171.247,265.736 171.784 C 266.093 172.322,266.386 172.975,266.386 173.235 C 266.386 173.495,266.481 173.750,266.596 173.801 C 266.928 173.948,269.193 177.317,269.193 177.662 C 269.193 177.999,269.725 179.010,270.175 179.531 C 270.330 179.709,271.340 181.465,272.421 183.433 C 276.069 190.074,277.187 191.369,278.004 189.895 C 278.176 189.586,278.389 189.270,278.479 189.193 C 278.568 189.116,279.120 188.105,279.705 186.947 C 280.290 185.789,280.984 184.526,281.248 184.140 C 281.511 183.754,281.896 182.996,282.104 182.456 C 282.311 181.916,282.762 180.968,283.106 180.351 C 283.450 179.733,283.946 178.476,284.207 177.556 C 284.468 176.636,284.996 175.262,285.381 174.503 C 286.058 173.166,286.416 172.012,287.846 166.543 C 290.922 154.779,291.936 142.590,290.794 131.088 C 290.648 129.621,290.461 127.682,290.377 126.778 C 290.294 125.874,290.030 124.359,289.790 123.410 C 289.550 122.461,289.254 121.050,289.131 120.275 C 289.008 119.499,288.704 118.263,288.454 117.528 C 288.204 116.793,287.998 115.974,287.995 115.709 C 287.991 115.272,285.876 108.616,284.764 105.544 C 284.114 103.745,283.259 102.457,282.714 102.453 C 263.106 102.321,227.218 102.377,226.927 102.540 M283.245 103.298 C 283.856 104.477,284.632 106.428,284.632 106.787 C 284.632 107.012,284.758 107.273,284.912 107.368 C 285.067 107.464,285.193 107.789,285.193 108.091 C 285.193 108.392,285.313 108.859,285.461 109.127 C 286.486 110.995,288.946 120.666,289.654 125.614 C 289.809 126.695,290.098 128.653,290.298 129.965 C 290.768 133.058,290.752 147.971,290.275 151.300 C 290.087 152.611,289.806 154.568,289.650 155.649 C 288.743 161.936,286.471 170.721,284.496 175.579 C 281.984 181.760,279.896 186.117,277.933 189.278 C 277.302 190.292,276.211 190.223,276.211 189.168 C 276.211 189.048,275.850 188.341,275.409 187.598 C 273.292 184.028,270.966 179.986,270.592 179.228 C 270.363 178.765,270.110 178.323,270.030 178.246 C 269.868 178.090,267.959 174.810,265.539 170.526 C 264.667 168.982,263.693 167.277,263.376 166.737 C 263.059 166.196,261.826 164.049,260.636 161.965 C 259.446 159.881,258.377 158.049,258.259 157.895 C 258.142 157.740,257.667 156.919,257.205 156.070 C 256.236 154.293,255.652 153.270,254.178 150.770 C 253.598 149.784,252.401 147.700,251.519 146.138 C 249.210 142.050,244.682 134.192,242.845 131.088 C 241.977 129.621,241.001 127.916,240.676 127.298 C 240.114 126.231,239.367 124.929,237.134 121.123 C 236.591 120.196,235.831 118.870,235.446 118.175 C 234.434 116.349,233.847 115.333,231.717 111.719 C 230.671 109.944,229.433 107.796,228.966 106.947 C 228.498 106.098,227.814 104.920,227.445 104.330 C 226.989 103.601,226.861 103.150,227.047 102.926 C 227.508 102.371,282.955 102.738,283.245 103.298 M109.064 188.801 C 108.416 189.449,109.358 191.451,112.025 195.088 C 112.308 195.474,112.880 196.358,113.297 197.053 C 113.713 197.747,114.381 198.708,114.781 199.188 C 115.181 199.667,116.014 200.731,116.632 201.551 C 117.249 202.372,118.658 204.024,119.763 205.224 C 120.868 206.424,122.170 207.901,122.656 208.507 C 123.338 209.355,127.976 213.718,130.919 216.281 C 132.229 217.421,134.339 219.051,136.000 220.204 C 137.081 220.955,138.344 221.920,138.807 222.349 C 139.270 222.777,140.028 223.293,140.491 223.495 C 140.954 223.697,142.442 224.525,143.798 225.335 C 145.154 226.145,146.366 226.807,146.491 226.807 C 146.617 226.807,146.933 227.042,147.193 227.330 C 147.453 227.617,148.199 228.074,148.850 228.344 C 149.502 228.615,150.690 229.138,151.491 229.506 C 152.292 229.874,153.030 230.175,153.132 230.175 C 153.234 230.175,153.690 230.441,154.147 230.766 C 154.891 231.296,159.075 232.936,161.263 233.556 C 161.726 233.687,162.863 234.054,163.789 234.372 C 164.716 234.690,166.358 235.189,167.439 235.482 C 168.519 235.774,170.154 236.230,171.072 236.495 C 171.990 236.759,173.506 237.023,174.441 237.082 C 176.308 237.199,175.866 237.004,172.772 236.345 C 166.693 235.051,159.667 232.746,154.246 230.269 C 150.944 228.760,146.317 226.372,144.637 225.312 C 143.984 224.899,143.385 224.561,143.307 224.561 C 143.154 224.561,140.488 222.818,137.629 220.848 C 128.885 214.823,119.349 205.175,113.416 196.351 C 109.671 190.781,108.855 189.309,109.307 188.934 C 109.798 188.527,209.293 188.507,209.545 188.914 C 209.693 189.153,206.863 194.286,203.470 199.934 C 203.028 200.670,202.667 201.335,202.667 201.413 C 202.667 201.490,202.161 202.386,201.544 203.402 C 200.926 204.419,200.421 205.288,200.421 205.333 C 200.421 205.379,199.937 206.219,199.345 207.199 C 198.753 208.180,197.885 209.677,197.416 210.526 C 196.664 211.888,196.098 212.881,193.931 216.632 C 193.641 217.133,193.133 218.018,192.802 218.596 C 192.472 219.175,191.998 219.992,191.750 220.411 C 190.443 222.613,186.432 229.570,185.817 230.698 C 185.426 231.414,184.668 232.758,184.130 233.684 C 183.593 234.611,182.989 235.684,182.789 236.070 C 181.920 237.744,181.742 237.850,180.150 237.636 C 177.019 237.215,176.049 237.166,176.982 237.475 C 180.632 238.684,183.802 237.605,183.850 235.139 C 183.855 234.859,184.161 234.227,184.530 233.736 C 184.898 233.244,185.446 232.337,185.746 231.719 C 186.046 231.102,186.550 230.154,186.867 229.614 C 187.183 229.074,188.023 227.607,188.734 226.354 C 189.444 225.102,190.217 223.918,190.451 223.723 C 190.686 223.529,190.877 223.233,190.877 223.066 C 190.877 222.898,191.572 221.597,192.421 220.174 C 193.270 218.751,193.965 217.507,193.965 217.410 C 193.965 217.312,194.470 216.488,195.088 215.579 C 195.705 214.670,196.211 213.787,196.211 213.618 C 196.211 213.449,196.446 212.968,196.733 212.550 C 197.020 212.132,197.801 210.842,198.467 209.684 C 199.134 208.526,199.890 207.326,200.148 207.018 C 200.406 206.709,200.834 205.895,201.099 205.209 C 201.365 204.523,201.812 203.639,202.092 203.244 C 202.372 202.849,203.073 201.642,203.650 200.561 C 204.226 199.481,204.918 198.344,205.187 198.035 C 205.456 197.726,206.085 196.653,206.584 195.649 C 207.083 194.646,207.774 193.446,208.119 192.982 C 209.333 191.354,210.107 189.482,209.782 188.966 C 209.331 188.251,109.777 188.088,109.064 188.801 " stroke="none" fill="#fcd4bc" fill-rule="evenodd"></path><path id="path8" d="M187.789 43.521 C 161.066 45.061,136.134 57.652,118.888 78.316 C 115.459 82.425,115.490 81.698,118.518 86.877 C 119.060 87.804,119.820 89.130,120.207 89.825 C 120.594 90.519,121.602 92.288,122.447 93.754 C 126.199 100.267,128.468 104.194,130.271 107.292 C 131.338 109.124,132.211 110.676,132.211 110.739 C 132.211 110.803,133.199 112.534,134.408 114.585 C 135.616 116.637,137.218 119.389,137.968 120.702 C 141.937 127.652,143.245 129.863,143.604 130.236 C 144.229 130.885,144.201 130.924,148.556 123.228 C 148.862 122.688,149.207 122.119,149.322 121.965 C 149.438 121.811,149.980 120.863,150.527 119.860 C 151.075 118.856,152.408 116.519,153.491 114.667 C 155.864 110.604,160.927 101.815,162.135 99.660 C 162.614 98.805,164.264 95.958,165.801 93.333 C 167.338 90.709,169.047 87.740,169.598 86.737 C 170.937 84.298,176.536 74.620,176.818 74.254 C 176.941 74.095,177.422 73.270,177.887 72.421 C 178.351 71.572,179.964 68.730,181.471 66.105 C 182.978 63.481,184.999 59.944,185.962 58.246 C 186.924 56.547,189.048 52.850,190.681 50.030 C 194.480 43.467,194.551 43.079,191.912 43.273 C 191.574 43.298,189.719 43.409,187.789 43.521 M193.477 43.957 C 193.569 44.049,193.401 44.554,193.103 45.080 C 191.793 47.392,191.383 48.102,188.916 52.351 C 187.482 54.821,185.694 57.878,184.944 59.144 C 184.193 60.410,183.579 61.522,183.579 61.614 C 183.579 61.706,183.141 62.466,182.606 63.302 C 182.071 64.139,181.307 65.428,180.910 66.166 C 179.304 69.147,178.521 70.518,178.011 71.241 C 177.717 71.658,177.142 72.632,176.735 73.404 C 176.328 74.175,175.867 74.996,175.712 75.228 C 175.322 75.806,170.539 84.212,169.323 86.456 C 168.779 87.460,168.101 88.616,167.816 89.026 C 167.531 89.436,167.298 89.844,167.298 89.933 C 167.298 90.022,166.793 90.921,166.175 91.930 C 165.558 92.939,165.053 93.815,165.053 93.878 C 165.053 93.941,164.232 95.333,163.228 96.972 C 162.225 98.611,161.404 100.028,161.404 100.120 C 161.404 100.213,161.005 100.934,160.519 101.723 C 160.032 102.512,159.401 103.568,159.115 104.070 C 158.830 104.572,158.360 105.393,158.071 105.895 C 154.952 111.311,153.263 114.318,153.263 114.456 C 153.263 114.547,153.090 114.822,152.878 115.066 C 152.667 115.309,152.180 116.077,151.795 116.772 C 151.083 118.061,150.763 118.620,148.906 121.825 C 148.325 122.828,147.089 125.007,146.160 126.667 C 144.046 130.444,143.849 130.436,141.759 126.503 C 140.884 124.856,139.890 123.125,138.024 120.000 C 136.740 117.848,136.140 116.792,135.074 114.807 C 134.535 113.804,133.951 112.793,133.775 112.561 C 133.600 112.330,133.157 111.572,132.792 110.877 C 132.426 110.182,131.983 109.425,131.806 109.193 C 131.629 108.961,131.304 108.393,131.084 107.930 C 130.864 107.467,130.333 106.560,129.903 105.914 C 129.474 105.269,129.123 104.674,129.123 104.593 C 129.123 104.511,128.460 103.305,127.649 101.912 C 126.839 100.519,125.614 98.397,124.928 97.198 C 124.242 95.999,123.611 94.954,123.525 94.877 C 123.439 94.800,123.104 94.232,122.780 93.614 C 121.446 91.069,120.337 89.109,119.697 88.167 C 119.323 87.618,119.018 87.062,119.018 86.933 C 119.018 86.803,118.666 86.170,118.235 85.524 C 117.805 84.879,117.213 83.887,116.920 83.320 L 116.387 82.290 117.102 81.215 C 120.494 76.114,130.744 66.257,137.404 61.691 C 138.793 60.739,139.972 59.858,140.023 59.734 C 140.075 59.610,140.296 59.509,140.515 59.509 C 140.733 59.509,140.912 59.382,140.912 59.228 C 140.912 59.074,141.034 58.947,141.183 58.947 C 141.332 58.947,142.564 58.276,143.920 57.455 C 145.927 56.241,151.241 53.541,156.211 51.210 C 160.099 49.386,169.851 46.505,176.561 45.196 C 181.621 44.210,192.904 43.383,193.477 43.957 M227.193 103.148 C 227.106 103.374,227.300 103.930,227.623 104.384 C 227.946 104.838,228.211 105.275,228.211 105.356 C 228.211 105.436,230.315 109.143,232.888 113.593 C 235.460 118.043,238.530 123.389,239.710 125.474 C 240.890 127.558,242.339 130.084,242.931 131.088 C 244.049 132.984,244.692 134.098,245.766 136.000 C 246.115 136.618,247.313 138.702,248.428 140.632 C 251.408 145.789,251.525 145.992,252.295 147.368 C 252.683 148.063,253.297 149.103,253.659 149.679 C 254.020 150.255,254.316 150.775,254.316 150.835 C 254.316 150.896,255.154 152.382,256.178 154.139 C 257.203 155.896,258.259 157.712,258.525 158.175 C 258.791 158.639,259.406 159.686,259.891 160.504 C 260.375 161.321,260.772 162.050,260.772 162.123 C 260.772 162.197,261.095 162.768,261.489 163.392 C 261.883 164.017,262.446 164.955,262.739 165.478 C 263.743 167.265,266.755 172.490,268.644 175.719 C 269.682 177.495,270.912 179.642,271.378 180.491 C 273.664 184.659,276.302 189.108,276.770 189.586 C 277.508 190.338,278.960 187.910,282.966 179.228 C 289.450 165.173,292.540 140.708,289.683 126.035 C 289.548 125.340,289.285 123.888,289.098 122.807 C 288.000 116.448,283.981 103.671,282.853 102.953 C 282.154 102.508,227.365 102.700,227.193 103.148 M281.112 103.233 L 282.786 103.439 283.606 105.404 C 284.930 108.572,285.231 109.385,285.999 111.860 C 290.347 125.870,291.434 141.540,289.085 156.351 C 288.226 161.763,285.947 170.742,284.778 173.317 C 284.564 173.789,284.187 174.790,283.941 175.541 C 282.870 178.808,279.295 186.360,277.849 188.408 C 277.063 189.522,276.788 189.256,274.531 185.181 C 273.401 183.142,271.834 180.400,271.047 179.088 C 270.261 177.775,269.427 176.360,269.195 175.942 C 268.962 175.523,268.077 173.967,267.228 172.482 C 266.379 170.998,265.432 169.313,265.123 168.739 C 264.814 168.164,264.343 167.361,264.075 166.953 C 263.808 166.545,263.334 165.761,263.023 165.211 C 262.711 164.661,262.186 163.737,261.855 163.158 C 261.525 162.579,260.808 161.284,260.261 160.281 C 259.715 159.277,258.911 157.928,258.476 157.283 C 258.040 156.637,257.684 156.025,257.684 155.923 C 257.684 155.820,257.451 155.400,257.166 154.991 C 256.880 154.581,256.267 153.551,255.803 152.702 C 255.340 151.853,254.709 150.716,254.403 150.175 C 254.097 149.635,253.427 148.435,252.914 147.509 C 252.401 146.582,251.679 145.343,251.309 144.754 C 250.939 144.165,250.391 143.249,250.090 142.719 C 249.790 142.188,249.273 141.281,248.943 140.702 C 248.612 140.123,248.024 139.081,247.635 138.386 C 247.246 137.691,246.653 136.681,246.316 136.140 C 245.979 135.600,245.346 134.526,244.910 133.754 C 242.538 129.558,241.864 128.378,239.860 124.912 C 238.655 122.828,237.291 120.428,236.829 119.579 C 236.367 118.730,235.895 117.909,235.779 117.754 C 235.663 117.600,235.316 117.032,235.008 116.491 C 234.700 115.951,233.779 114.372,232.963 112.982 C 232.146 111.593,231.044 109.635,230.515 108.632 C 229.985 107.628,229.436 106.663,229.294 106.488 C 229.153 106.312,228.725 105.555,228.344 104.804 L 227.652 103.439 228.282 103.282 C 229.238 103.043,279.194 102.997,281.112 103.233 M109.331 189.196 C 109.002 189.730,114.043 197.455,117.755 202.105 C 124.574 210.648,135.231 219.904,144.000 224.900 C 144.695 225.296,145.768 225.906,146.386 226.256 C 148.285 227.331,153.291 229.781,155.509 230.720 C 156.667 231.211,157.867 231.722,158.175 231.857 C 158.803 232.131,162.757 233.533,164.912 234.246 C 168.970 235.587,178.130 237.477,180.540 237.470 C 181.656 237.467,183.018 236.311,183.018 235.367 C 183.018 235.284,183.338 234.708,183.731 234.087 C 184.123 233.466,185.404 231.289,186.577 229.251 C 187.750 227.212,191.142 221.312,194.115 216.140 C 197.088 210.968,200.688 204.716,202.115 202.246 C 203.542 199.775,205.028 197.186,205.417 196.491 C 205.805 195.796,206.655 194.344,207.305 193.263 C 208.747 190.865,209.404 189.597,209.404 189.207 C 209.404 188.802,109.581 188.792,109.331 189.196 M208.839 189.404 C 208.837 189.519,208.397 190.372,207.861 191.298 C 207.324 192.225,206.372 193.930,205.744 195.088 C 204.564 197.262,202.930 200.110,201.879 201.825 C 201.547 202.365,200.897 203.502,200.434 204.351 C 199.000 206.978,197.854 208.952,197.338 209.684 C 197.066 210.070,196.434 211.144,195.933 212.070 C 195.432 212.996,194.610 214.512,194.107 215.439 C 193.603 216.365,192.481 218.279,191.613 219.693 C 190.745 221.106,190.035 222.350,190.035 222.456 C 190.035 222.563,189.797 222.985,189.506 223.395 C 189.215 223.805,188.647 224.740,188.243 225.474 C 187.839 226.207,187.178 227.407,186.775 228.140 C 186.371 228.874,185.803 229.809,185.512 230.219 C 185.221 230.629,184.982 231.052,184.982 231.161 C 184.982 231.269,184.632 231.881,184.203 232.521 C 183.774 233.161,183.074 234.402,182.648 235.278 C 181.590 237.454,179.862 237.537,172.351 235.775 C 171.656 235.611,170.582 235.383,169.965 235.267 C 169.347 235.151,168.211 234.846,167.439 234.589 C 166.667 234.331,164.456 233.597,162.526 232.957 C 158.086 231.485,156.877 231.007,153.563 229.414 C 152.086 228.704,150.561 227.985,150.175 227.816 C 149.117 227.353,145.731 225.439,144.093 224.378 C 143.295 223.861,142.563 223.439,142.466 223.439 C 142.206 223.439,138.324 220.790,135.439 218.644 C 129.161 213.973,122.641 207.591,117.540 201.123 C 116.809 200.196,116.103 199.306,115.971 199.143 C 114.819 197.728,109.754 189.728,109.754 189.323 C 109.754 189.252,132.049 189.193,159.298 189.193 C 186.547 189.193,208.841 189.288,208.839 189.404 " stroke="none" fill="#e49c7c" fill-rule="evenodd"></path></g></svg>